<svg width="227" height="230" viewBox="0 0 227 230" fill="none" xmlns="http://www.w3.org/2000/svg">
<path d="M168.352 18.1662C180.009 21.0612 189.716 29.1033 194.728 40.0191L222.509 100.521C227.524 111.443 227.293 124.056 221.882 134.788L191.956 194.136C186.539 204.878 176.522 212.566 164.744 215.021L99.6671 228.582C87.9019 231.034 75.6606 227.996 66.4067 220.328L15.14 177.848C5.89043 170.184 0.631038 158.727 0.848722 146.717L2.05426 80.2035C2.27222 68.1779 7.95743 56.9068 17.4989 49.584L70.2091 9.1306C79.7496 1.80855 92.1062 -0.768228 103.778 2.13031L168.352 18.1662Z" stroke="#F2BF5E"/>
</svg>
