<svg width="582" height="592" viewBox="0 0 582 592" fill="none" xmlns="http://www.w3.org/2000/svg">
<path d="M455.748 56.8394C467.552 59.7678 477.382 67.9073 482.461 78.9577L577.53 285.8C582.617 296.869 582.383 309.653 576.894 320.529L474.415 523.562C468.927 534.436 458.783 542.216 446.858 544.699L223.959 591.103C212.054 593.581 199.667 590.51 190.3 582.755L14.8362 437.507C5.46054 429.746 0.128585 418.138 0.349365 405.969L4.47586 178.519C4.69691 166.335 10.4601 154.916 20.1309 147.501L200.684 9.0669C210.341 1.66265 222.843 -0.942941 234.654 1.98724L455.748 56.8394Z" fill="#E1A532" fill-opacity="0.7"/>
</svg>
