<svg width="64" height="87" viewBox="0 0 64 87" fill="none" xmlns="http://www.w3.org/2000/svg">
<path d="M13.2125 17.2265L8.6332 25.7458C18.3843 29.9081 26.0941 37.6369 30.1236 47.2891C34.153 56.9413 34.1844 67.7557 30.2109 77.4333L39.5116 80.3748C44.3632 68.5553 44.3243 55.348 39.4032 43.56C34.4821 31.772 25.0669 22.3326 13.1585 17.2482L13.2125 17.2265ZM22.295 0.156705L17.7157 8.67598C31.7857 14.709 42.9071 25.8764 48.7255 39.8137C54.5438 53.751 54.6023 69.3642 48.8885 83.3475L58.1892 86.289C64.7658 70.1624 64.6922 52.1622 57.9839 36.0931C51.2756 20.024 38.4583 7.14503 22.241 0.178395L22.295 0.156705ZM4.16947 35.1463L0.102734 41.4188C3.22371 42.1909 6.12539 43.6469 8.58966 45.6772C11.0539 47.7075 13.0167 50.2593 14.3305 53.1409C15.4077 56.2322 15.7761 59.5187 15.4093 62.7661C15.0425 66.0136 13.9497 69.1419 12.2086 71.9281L19.555 74.4181C21.5529 70.7523 22.7365 66.7132 23.0275 62.5669C23.3185 58.4206 22.7105 54.2613 21.2435 50.3629C19.7414 46.7341 17.4273 43.4828 14.4721 40.8491C11.5169 38.2154 7.99609 36.2665 4.16947 35.1463Z" fill="#E1A532" fill-opacity="0.7"/>
</svg>
