<svg width="107" height="106" viewBox="0 0 107 106" fill="none" xmlns="http://www.w3.org/2000/svg">
<path fill-rule="evenodd" clip-rule="evenodd" d="M93.3608 66.7773C83.139 56.5555 65.5981 63.8374 65.5981 78.2769V79.1577H98.1243V78.2769C98.1267 76.1409 97.707 74.0254 96.8896 72.052C96.0721 70.0786 94.8729 68.286 93.3608 66.7773ZM81.8612 63.7691C85.5588 63.7705 89.1162 65.1836 91.8069 67.7198C94.4975 70.2559 96.1183 73.7238 96.338 77.4147H67.3783C67.5981 73.7227 69.2197 70.254 71.9116 67.7177C74.6036 65.1813 78.1626 63.7689 81.8612 63.7691ZM73.8785 48.883C73.883 47.5741 74.2094 46.2865 74.8291 45.1336C75.4488 43.9807 76.3426 42.9981 77.4318 42.2722C78.521 41.5464 79.772 41.0998 81.0746 40.9718C82.3772 40.8437 83.6913 41.0382 84.901 41.538C86.1106 42.0378 87.1787 42.8276 88.011 43.8378C88.8433 44.8479 89.4143 46.0473 89.6735 47.3303C89.9327 48.6132 89.8722 49.9402 89.4974 51.1943C89.1226 52.4483 88.4449 53.5909 87.5242 54.5211C86.4091 55.6434 84.9858 56.4091 83.4347 56.7209C81.8837 57.0328 80.275 56.8767 78.8129 56.2726C77.3507 55.6685 76.1011 54.6435 75.2225 53.3278C74.344 52.0121 73.8762 50.465 73.8785 48.883ZM81.8612 55.0855C82.8767 55.0765 83.8744 54.8183 84.7667 54.3337C85.659 53.849 86.4187 53.1526 86.979 52.3057C87.5394 51.4588 87.8832 50.4873 87.9803 49.4764C88.0774 48.4656 87.9249 47.4464 87.5361 46.5083C87.1472 45.5702 86.534 44.7419 85.7503 44.0962C84.9666 43.4505 84.0363 43.0071 83.0412 42.8049C82.046 42.6027 81.0165 42.6479 80.0429 42.9366C79.0693 43.2253 78.1815 43.7486 77.4574 44.4606C76.5762 45.3271 75.9739 46.4371 75.7278 47.6482C75.4817 48.8594 75.6031 50.1164 76.0763 51.2581C76.5495 52.3998 77.353 53.3741 78.3837 54.0561C79.4144 54.738 80.6254 55.0965 81.8612 55.0855ZM36.4027 66.7712C26.1809 56.5494 8.64004 63.8312 8.64004 78.2707V79.1515H41.1663V78.2707C41.1686 76.1347 40.7489 74.0192 39.9315 72.0458C39.114 70.0724 37.9148 68.2799 36.4027 66.7712ZM24.9031 63.7629C28.6007 63.7643 32.1582 65.1774 34.8488 67.7136C37.5394 70.2497 39.1602 73.7175 39.3799 77.4085H10.4202C10.64 73.7165 12.2616 70.2478 14.9536 67.7114C17.6455 65.1751 21.2045 63.7627 24.9031 63.7629ZM30.5413 43.0526C31.4618 43.9826 32.1394 45.1249 32.5143 46.3787C32.8891 47.6324 32.9498 48.9591 32.6909 50.2419C32.4319 51.5246 31.8614 52.7239 31.0296 53.7341C30.1977 54.7443 29.1301 55.5343 27.9209 56.0345C26.7117 56.5347 25.3979 56.7297 24.0956 56.6023C22.7932 56.4749 21.5421 56.029 20.4527 55.304C19.3634 54.579 18.4691 53.5971 17.8487 52.4449C17.2284 51.2926 16.9011 50.0055 16.8956 48.6969C16.886 47.1117 17.3493 45.5595 18.2264 44.2389C19.1035 42.9184 20.3544 41.8894 21.8193 41.2834C23.2842 40.6775 24.8966 40.5222 26.4502 40.8373C28.0039 41.1524 29.4282 41.9237 30.5413 43.0526ZM29.3008 44.2931C28.5765 43.5809 27.6884 43.0575 26.7146 42.7689C25.7407 42.4802 24.7108 42.4352 23.7155 42.6376C22.7201 42.8401 21.7897 43.284 21.006 43.9302C20.2223 44.5764 19.6093 45.4051 19.2209 46.3437C18.8324 47.2822 18.6804 48.3018 18.7782 49.3128C18.876 50.3238 19.2206 51.2954 19.7817 52.1421C20.3428 52.9888 21.1032 53.6847 21.9962 54.1687C22.8892 54.6527 23.8874 54.9101 24.9031 54.9181C26.1385 54.9278 27.3485 54.5684 28.3783 53.886C29.408 53.2036 30.2106 52.2292 30.683 51.0878C31.1554 49.9463 31.2763 48.6898 31.03 47.4792C30.7837 46.2687 30.1816 45.1592 29.3008 44.2931ZM2.04672 34.89L48.9132 2.58088L50.3088 4.299L45.3096 9.59597C45.1508 9.76579 45.0656 9.99152 45.0726 10.2239C45.0795 10.4563 45.1781 10.6765 45.3468 10.8365L50.2654 16.0963L45.3034 21.3622C45.224 21.4459 45.1619 21.5445 45.1208 21.6523C45.0797 21.7601 45.0603 21.8749 45.0638 21.9902C45.0673 22.1055 45.0935 22.219 45.141 22.3242C45.1885 22.4293 45.2563 22.524 45.3406 22.6027L50.2592 27.8625L45.2972 33.1285C45.1384 33.2983 45.0532 33.524 45.0602 33.7564C45.0671 33.9888 45.1657 34.209 45.3344 34.369L50.253 39.6226L45.291 44.8885C45.1383 45.0517 45.0534 45.2668 45.0534 45.4902C45.0534 45.7136 45.1383 45.9287 45.291 46.0918L50.253 51.3516L45.291 56.6548C45.1405 56.8166 45.0569 57.0293 45.0569 57.2502C45.0569 57.4711 45.1405 57.6839 45.291 57.8457L50.253 63.1489L45.291 68.4086C45.1322 68.5784 45.047 68.8042 45.054 69.0366C45.0609 69.2689 45.1595 69.4891 45.3282 69.6491L50.2468 74.9089L45.2847 80.1687C45.126 80.3385 45.0408 80.5642 45.0478 80.7966C45.0547 81.029 45.1533 81.2492 45.322 81.4092L50.2406 86.669L45.2785 91.9287C45.1198 92.0986 45.0346 92.3243 45.0416 92.5566C45.0485 92.789 45.1471 93.0093 45.3158 93.1693L50.2344 98.429L45.5391 103.391H2.04672V34.89ZM48.4853 0.775948L49.2544 0.236328L52.151 3.8028C52.2851 3.96756 52.3547 4.17551 52.3467 4.38781C52.3387 4.60011 52.2537 4.80225 52.1076 4.95647L47.1455 10.2224L52.1076 15.5194C52.2584 15.6823 52.3422 15.896 52.3422 16.118C52.3422 16.3399 52.2584 16.5537 52.1076 16.7165L47.1455 21.9825L52.1076 27.2857C52.2584 27.4485 52.3422 27.6623 52.3422 27.8842C52.3422 28.1062 52.2584 28.3199 52.1076 28.4828L47.1455 33.7426L52.1076 39.0457C52.2584 39.2086 52.3422 39.4223 52.3422 39.6443C52.3422 39.8662 52.2584 40.08 52.1076 40.2428L47.1455 45.5026L52.1076 50.7623C52.1877 50.8456 52.2504 50.9441 52.292 51.052C52.3336 51.1598 52.3532 51.2749 52.3498 51.3904C52.3463 51.506 52.3198 51.6197 52.2718 51.7248C52.2238 51.83 52.1553 51.9245 52.0703 52.0028L47.1455 57.2689L52.1076 62.572C52.2584 62.7349 52.3422 62.9486 52.3422 63.1706C52.3422 63.3925 52.2584 63.6063 52.1076 63.7691L47.1455 69.0351L52.1076 74.3321C52.2584 74.4949 52.3422 74.7087 52.3422 74.9306C52.3422 75.1526 52.2584 75.3664 52.1076 75.5292L47.1455 80.7952L52.1076 86.0921C52.2584 86.2549 52.3422 86.4687 52.3422 86.6907C52.3422 86.9126 52.2584 87.1264 52.1076 87.2892L47.1455 92.5552L52.1076 97.8522C52.2584 98.015 52.3422 98.2288 52.3422 98.4507C52.3422 98.6727 52.2584 98.8865 52.1076 99.0493L46.3268 105.19H0.278992V33.972L48.4667 0.751151L48.4853 0.775948ZM106.473 33.8728L61.1571 2.63671L54.601 9.59597C54.5192 9.67724 54.4543 9.7739 54.4101 9.88035C54.3658 9.9868 54.343 10.1009 54.343 10.2162C54.343 10.3315 54.3658 10.4457 54.4101 10.5521C54.4543 10.6586 54.5192 10.7552 54.601 10.8365L59.5258 16.0963L54.5638 21.3622C54.405 21.5321 54.3198 21.7578 54.3268 21.9901C54.3338 22.2225 54.4323 22.4427 54.601 22.6027L59.5258 27.8625L54.5638 33.1285C54.4065 33.299 54.3223 33.5244 54.3293 33.7563C54.3362 33.9882 54.4338 34.2082 54.601 34.369L59.5258 39.6226L54.5638 44.8885C54.4112 45.0517 54.3263 45.2668 54.3263 45.4902C54.3263 45.7136 54.4112 45.9287 54.5638 46.0918L59.5258 51.3516L54.5638 56.6548C54.4134 56.8166 54.3298 57.0293 54.3298 57.2502C54.3298 57.4711 54.4134 57.6839 54.5638 57.8457L59.5258 63.1489L54.5638 68.4086C54.4065 68.5792 54.3223 68.8046 54.3293 69.0365C54.3362 69.2684 54.4338 69.4883 54.601 69.6491L59.5258 74.9089L54.5638 80.1687C54.4065 80.3392 54.3223 80.5646 54.3293 80.7965C54.3362 81.0284 54.4338 81.2484 54.601 81.4092L59.5258 86.669L54.5638 91.9287C54.4065 92.0993 54.3223 92.3247 54.3293 92.5566C54.3362 92.7885 54.4338 93.0084 54.601 93.1693L59.5258 98.429L53.9435 104.334C55.0042 105.326 54.632 105.171 55.5624 105.171H106.423V33.972L106.473 33.8728ZM61.3928 4.92546L104.711 34.7908V103.41H57.2681L61.3928 99.0245C61.5464 98.863 61.632 98.6487 61.632 98.4259C61.632 98.2031 61.5464 97.9888 61.3928 97.8273L56.4307 92.5304L61.3928 87.2644C61.5464 87.103 61.632 86.8887 61.632 86.6658C61.632 86.443 61.5464 86.2288 61.3928 86.0673L56.4307 80.7703L61.3928 75.5043C61.5464 75.3429 61.632 75.1286 61.632 74.9058C61.632 74.683 61.5464 74.4687 61.3928 74.3073L56.4307 69.0103L61.3928 63.7443C61.5464 63.5829 61.632 63.3686 61.632 63.1458C61.632 62.9229 61.5464 62.7086 61.3928 62.5472L56.4307 57.244L61.3556 51.9781C61.4406 51.8997 61.5091 51.8052 61.557 51.7C61.605 51.5949 61.6315 51.4812 61.635 51.3656C61.6385 51.2501 61.6188 51.135 61.5772 51.0272C61.5356 50.9193 61.4729 50.8208 61.3928 50.7375L56.4307 45.4778L61.3928 40.218C61.5464 40.0566 61.632 39.8423 61.632 39.6195C61.632 39.3966 61.5464 39.1823 61.3928 39.0209L56.4307 33.7177L61.3928 28.458C61.5464 28.2965 61.632 28.0822 61.632 27.8594C61.632 27.6366 61.5464 27.4223 61.3928 27.2609L56.4307 21.9577L61.3928 16.6917C61.5464 16.5303 61.632 16.316 61.632 16.0932C61.632 15.8703 61.5464 15.656 61.3928 15.4946L56.4307 10.2038L61.3928 5.01848V4.92546Z" fill="#DB653C"/>
</svg>
