<svg width="108" height="109" viewBox="0 0 108 109" fill="none" xmlns="http://www.w3.org/2000/svg">
<path fill-rule="evenodd" clip-rule="evenodd" d="M73.0187 94.5738C73.5457 93.2595 73.5457 91.7925 73.0187 90.4781C72.8057 89.9556 72.5046 89.4735 72.1286 89.0527C72.927 88.8427 73.6627 88.4426 74.2729 87.8866C74.8832 87.3305 75.3498 86.6351 75.6329 85.8596C75.9009 85.1813 76.0443 84.4601 76.0562 83.7308C76.0696 83.0105 75.9449 82.2942 75.689 81.6208C75.4333 80.9328 75.0197 80.3145 74.4814 79.8157C75.4875 79.2745 76.2668 78.3914 76.6787 77.3259C76.9434 76.667 77.0786 75.9632 77.077 75.2532C77.0795 74.5416 76.9464 73.836 76.6849 73.1742C76.3182 72.232 75.665 71.4287 74.8176 70.8774C75.535 70.3245 76.0881 69.5863 76.4172 68.7424C76.949 67.4096 76.949 65.9235 76.4172 64.5907C76.0592 63.6421 75.4111 62.8307 74.5651 62.2719C73.7191 61.7131 72.7183 61.4354 71.7053 61.4785H64.0057V61.3291C63.9479 60.5836 63.7374 59.858 63.3872 59.1973C63.0371 58.5366 62.5548 57.955 61.9703 57.4886C60.8119 56.4063 59.3137 55.7595 57.7315 55.6586H47.013C44.3925 55.6586 41.1683 59.5178 38.2303 63.0346C36.6244 64.9579 35.1181 66.7693 33.9728 67.6469H22.4514C22.218 67.6469 21.9942 67.7392 21.8286 67.9036C21.663 68.068 21.5692 68.2912 21.5675 68.5246V92.333C21.5675 92.5674 21.6606 92.7923 21.8264 92.958C21.9921 93.1238 22.217 93.2169 22.4514 93.2169H36.0891L41.5604 97.2503C41.713 97.3593 41.8957 97.418 42.0832 97.4184L68.3317 97.5429C69.3271 97.5973 70.3148 97.3407 71.158 96.8087C72.0011 96.2767 72.6579 95.4957 73.0374 94.5738H73.0187ZM70.6908 87.4717H66.01V89.2208H68.3255C68.974 89.1793 69.6192 89.3419 70.1707 89.6857C70.7221 90.0295 71.1521 90.5374 71.4003 91.1379C71.5797 91.5742 71.6706 92.0418 71.668 92.5135C71.6665 92.9828 71.5757 93.4476 71.4003 93.8829C71.1442 94.4742 70.7108 94.9714 70.16 95.3059C69.6093 95.6403 68.9683 95.7956 68.3255 95.7502L42.3696 95.6257L36.9107 91.5736C36.7597 91.4609 36.5764 91.3998 36.3879 91.3994H23.3166V69.4333H34.2405C34.4445 69.4331 34.6423 69.3628 34.8007 69.2341C36.1451 68.2818 37.8008 66.2962 39.5624 64.1923C42.2451 60.9743 45.1955 57.4451 46.9943 57.4451H57.7439C58.8957 57.5423 59.979 58.0323 60.8126 58.8331C61.2048 59.1325 61.5339 59.5067 61.7807 59.9341C62.0275 60.3614 62.1871 60.8335 62.2504 61.3229V61.4723H54.2147C53.9939 61.4908 53.7881 61.5917 53.6381 61.7548C53.4881 61.9179 53.4049 62.1314 53.4049 62.353C53.4049 62.5746 53.4881 62.7881 53.6381 62.9512C53.7881 63.1144 53.9939 63.2152 54.2147 63.2338H71.7178C72.3739 63.1952 73.0254 63.3653 73.5789 63.7198C74.1324 64.0742 74.5595 64.5948 74.7989 65.2069C75.1475 66.1274 75.1475 67.1435 74.7989 68.0639C74.5595 68.676 74.1324 69.1966 73.5789 69.5511C73.0254 69.9056 72.3739 70.0757 71.7178 70.0371H66.5266V71.8048H71.973C72.6291 71.7662 73.2806 71.9364 73.8341 72.2908C74.3876 72.6453 74.8147 73.1659 75.0541 73.778C75.2337 74.2338 75.3245 74.7197 75.3217 75.2096C75.324 75.6969 75.2354 76.1803 75.0603 76.635C74.8219 77.2483 74.3953 77.7702 73.8417 78.1258C73.2881 78.4815 72.6361 78.6525 71.9792 78.6144H66.5328V80.3821H71.2136C71.8262 80.3468 72.4338 80.5093 72.9471 80.8455C73.4603 81.1816 73.852 81.6738 74.0644 82.2494C74.2405 82.7142 74.323 83.2092 74.3071 83.7059C74.3006 84.2241 74.1993 84.7367 74.0084 85.2185C73.7613 85.8931 73.309 86.4734 72.715 86.8775C72.121 87.2817 71.4152 87.4895 70.697 87.4717H70.6908ZM85.8659 96.7399L80.4942 93.9265C80.2891 93.8299 80.0545 93.8165 79.8396 93.889C79.6248 93.9615 79.4464 94.1144 79.3417 94.3156C79.2371 94.5168 79.2144 94.7507 79.2784 94.9682C79.3424 95.1858 79.4882 95.3701 79.6851 95.4826L85.0505 98.3023C85.2552 98.3894 85.4852 98.3962 85.6946 98.3213C85.9041 98.2464 86.0776 98.0952 86.1805 97.898C86.2834 97.7008 86.3082 97.4721 86.2499 97.2574C86.1916 97.0427 86.0545 96.858 85.8659 96.7399ZM88.1067 84.179L82.1624 82.9964C82.0492 82.9739 81.9327 82.9739 81.8195 82.9965C81.7063 83.019 81.5986 83.0637 81.5027 83.1278C81.4067 83.192 81.3244 83.2744 81.2603 83.3704C81.1962 83.4664 81.1516 83.5741 81.1291 83.6873C81.1067 83.8005 81.1067 83.917 81.1293 84.0302C81.1518 84.1434 81.1964 84.2511 81.2606 84.347C81.3248 84.4429 81.4072 84.5253 81.5032 84.5894C81.5992 84.6535 81.7068 84.6981 81.82 84.7205L87.7644 85.9156C87.8776 85.9381 87.9941 85.9381 88.1073 85.9155C88.2205 85.893 88.3282 85.8483 88.4241 85.7842C88.5201 85.72 88.6024 85.6376 88.6665 85.5416C88.7306 85.4456 88.7752 85.3379 88.7977 85.2247C88.8201 85.1115 88.8201 84.995 88.7975 84.8818C88.775 84.7686 88.7303 84.6609 88.6662 84.565C88.602 84.469 88.5196 84.3867 88.4236 84.3226C88.3276 84.2585 88.2199 84.2139 88.1067 84.1915V84.179ZM89.5321 72.4148H83.4695C83.2368 72.4148 83.0135 72.5073 82.8489 72.6719C82.6843 72.8365 82.5919 73.0597 82.5919 73.2925C82.5919 73.5252 82.6843 73.7485 82.8489 73.9131C83.0135 74.0776 83.2368 74.1701 83.4695 74.1701H89.5321C89.7649 74.1701 89.9881 74.0776 90.1527 73.9131C90.3173 73.7485 90.4098 73.5252 90.4098 73.2925C90.4098 73.0597 90.3173 72.8365 90.1527 72.6719C89.9881 72.5073 89.7649 72.4148 89.5321 72.4148ZM82.8471 61.4411C82.7361 61.4745 82.6329 61.5296 82.5434 61.6033C82.454 61.677 82.3802 61.7678 82.3263 61.8704C82.2724 61.973 82.2395 62.0853 82.2295 62.2008C82.2195 62.3163 82.2327 62.4326 82.2682 62.5429C82.3384 62.7651 82.4936 62.9507 82.6999 63.0591C82.9063 63.1675 83.1471 63.19 83.3699 63.1217L89.1524 61.3042C89.2628 61.2699 89.3653 61.2141 89.4541 61.1402C89.5429 61.0662 89.6163 60.9755 89.67 60.8732C89.7238 60.7709 89.7569 60.659 89.7674 60.5439C89.7779 60.4289 89.7656 60.3128 89.7313 60.2025C89.697 60.0921 89.6412 59.9896 89.5673 59.9008C89.4933 59.812 89.4026 59.7386 89.3003 59.6849C89.198 59.6311 89.0861 59.598 88.971 59.5875C88.856 59.577 88.7399 59.5893 88.6296 59.6236L82.8471 61.4411ZM35.2239 42.3072L39.1578 40.0166C39.2984 39.9395 39.4132 39.8226 39.4877 39.6805C39.5436 39.5792 39.579 39.4679 39.5917 39.3529C39.6045 39.2379 39.5943 39.1215 39.5619 39.0105C39.5295 38.8994 39.4755 38.7958 39.4029 38.7057C39.3304 38.6156 39.2407 38.5408 39.1391 38.4854L33.618 35.4728L37.1659 32.6905C37.2751 32.6271 37.3693 32.541 37.4421 32.438C37.5149 32.3349 37.5647 32.2174 37.588 32.0934C37.6113 31.9694 37.6075 31.8418 37.5771 31.7194C37.5466 31.597 37.4901 31.4825 37.4113 31.3839C37.3326 31.2853 37.2336 31.2048 37.121 31.1479C37.0083 31.0911 36.8848 31.0592 36.7587 31.0544C36.6326 31.0496 36.5069 31.0721 36.3903 31.1202C36.2737 31.1684 36.1688 31.2412 36.0829 31.3335L31.483 34.9375C31.3905 35.0087 31.3131 35.0976 31.2553 35.1991C31.1976 35.3006 31.1607 35.4126 31.1468 35.5286C31.1329 35.6445 31.1422 35.762 31.1743 35.8743C31.2064 35.9866 31.2606 36.0913 31.3337 36.1824C31.4101 36.2793 31.5054 36.3598 31.6137 36.4189L36.9294 39.3195L33.9292 41.0623C33.8012 41.1389 33.6944 41.2461 33.6183 41.3744C33.5422 41.5026 33.4993 41.6478 33.4935 41.7968L33.3068 45.1705C33.3095 45.3949 33.3976 45.6099 33.553 45.7718C33.7085 45.9337 33.9197 46.0304 34.1438 46.0423C34.368 46.0542 34.5882 45.9803 34.7599 45.8358C34.9316 45.6912 35.0419 45.4867 35.0683 45.2638L35.2239 42.3446V42.3072ZM47.9653 42.413L46.9943 45.6497C46.9372 45.8712 46.9682 46.1063 47.0808 46.3054C47.1933 46.5045 47.3787 46.6522 47.598 46.7175C47.8172 46.7828 48.0532 46.7606 48.2563 46.6555C48.4595 46.5504 48.614 46.3706 48.6874 46.1539L49.8202 42.3819L52.1419 42.3321C52.2572 42.3297 52.3709 42.3046 52.4764 42.2582C52.582 42.2119 52.6774 42.1452 52.7571 42.0619C52.8369 41.9787 52.8995 41.8805 52.9413 41.7731C52.9831 41.6657 53.0034 41.5511 53.0009 41.4358C52.996 41.2025 52.899 40.9805 52.7311 40.8185C52.5632 40.6564 52.338 40.5673 52.1046 40.5706L50.3493 40.608L51.644 36.3131L53.586 36.2757C53.8068 36.2531 54.0111 36.1481 54.158 35.9817C54.305 35.8153 54.384 35.5997 54.3793 35.3778C54.3746 35.1558 54.2865 34.9438 54.1326 34.7838C53.9787 34.6238 53.7703 34.5276 53.5487 34.5142L52.173 34.5454L53.1129 31.4331C53.1798 31.2095 53.1551 30.9684 53.0442 30.7629C52.9333 30.5575 52.7453 30.4045 52.5216 30.3376C52.2979 30.2708 52.0568 30.2955 51.8514 30.4064C51.646 30.5173 51.493 30.7053 51.4261 30.929L50.3244 34.6014L47.3304 34.6636L48.3014 31.4331C48.3346 31.3224 48.3455 31.2062 48.3337 31.0912C48.3219 30.9762 48.2876 30.8646 48.2327 30.7629C48.1778 30.6612 48.1034 30.5713 48.0137 30.4983C47.924 30.4253 47.8209 30.3707 47.7101 30.3376C47.5994 30.3045 47.4832 30.2936 47.3682 30.3054C47.2532 30.3172 47.1416 30.3515 47.0399 30.4064C46.9382 30.4613 46.8483 30.5357 46.7753 30.6254C46.7023 30.715 46.6477 30.8182 46.6146 30.929L45.4818 34.701L43.1601 34.7508C43.0382 34.7429 42.9159 34.7604 42.8011 34.8022C42.6863 34.8439 42.5814 34.909 42.493 34.9934C42.4046 35.0777 42.3347 35.1795 42.2876 35.2922C42.2405 35.405 42.2173 35.5263 42.2195 35.6484C42.2216 35.7706 42.2491 35.891 42.3001 36.002C42.3511 36.113 42.4246 36.2122 42.5159 36.2934C42.6073 36.3746 42.7144 36.4359 42.8306 36.4736C42.9468 36.5113 43.0696 36.5244 43.1912 36.5123L44.9465 36.4749L43.658 40.776L41.716 40.8134C41.4952 40.8354 41.2908 40.9398 41.1434 41.1056C40.996 41.2714 40.9164 41.4866 40.9203 41.7085C40.9242 41.9303 41.0114 42.1425 41.1646 42.3031C41.3178 42.4636 41.5257 42.5606 41.7471 42.5749L43.1227 42.5438L42.1828 45.6497C42.1257 45.8712 42.1567 46.1063 42.2693 46.3054C42.3819 46.5045 42.5672 46.6522 42.7865 46.7175C43.0057 46.7828 43.2417 46.7606 43.4448 46.6555C43.648 46.5504 43.8025 46.3706 43.8759 46.1539L44.9776 42.4815L47.9653 42.4193V42.413ZM45.4756 40.7075L46.7702 36.4065L49.758 36.3442L48.5006 40.6702L45.5067 40.7324L45.4756 40.7075ZM71.7987 39.0954C71.2602 39.6361 70.9258 40.3467 70.8525 41.1063C70.7792 41.8658 70.9714 42.6273 71.3965 43.2611C71.8215 43.8948 72.4532 44.3615 73.1838 44.5818C73.9144 44.8021 74.6987 44.7624 75.4033 44.4693C76.1078 44.1762 76.689 43.6479 77.0478 42.9744C77.4065 42.3009 77.5207 41.5239 77.3709 40.7757C77.2211 40.0274 76.8165 39.3543 76.2261 38.8709C75.6357 38.3874 74.8959 38.1236 74.1329 38.1244C73.699 38.1245 73.2695 38.2103 72.8689 38.377C72.4683 38.5436 72.1046 38.7878 71.7987 39.0954ZM74.1329 42.9732C73.8276 42.9732 73.5291 42.8827 73.2753 42.7131C73.0214 42.5435 72.8236 42.3024 72.7067 42.0203C72.5899 41.7382 72.5593 41.4279 72.6189 41.1284C72.6784 40.829 72.8255 40.5539 73.0413 40.338C73.2572 40.1222 73.5323 39.9751 73.8317 39.9156C74.1311 39.856 74.4415 39.8866 74.7236 40.0034C75.0057 40.1203 75.2468 40.3181 75.4164 40.572C75.586 40.8258 75.6765 41.1243 75.6765 41.4296C75.6765 41.839 75.5139 42.2316 75.2244 42.5211C74.9349 42.8106 74.5423 42.9732 74.1329 42.9732ZM74.1764 31.6012C74.2514 31.505 74.3454 31.4254 74.4526 31.3674C74.5598 31.3093 74.6778 31.2741 74.7993 31.2638C74.9207 31.2536 75.043 31.2686 75.1584 31.3079C75.2738 31.3472 75.3798 31.4099 75.4698 31.4921C75.5598 31.5743 75.6318 31.6743 75.6813 31.7857C75.7308 31.8971 75.7567 32.0175 75.7574 32.1394C75.7581 32.2613 75.7336 32.3821 75.6854 32.494C75.6372 32.606 75.5664 32.7068 75.4773 32.7901L65.705 43.5148C65.5482 43.6873 65.3292 43.7904 65.0963 43.8015C64.8635 43.8126 64.6357 43.7307 64.4632 43.5739C64.2907 43.4171 64.1875 43.1981 64.1765 42.9653C64.1654 42.7324 64.2473 42.5046 64.4041 42.3321L74.1764 31.6012ZM63.7256 35.9583C64.2664 36.5015 64.979 36.8402 65.7416 36.9168C66.5043 36.9933 67.2699 36.8028 67.9079 36.3779C68.5459 35.953 69.0166 35.3199 69.24 34.5867C69.4633 33.8534 69.4253 33.0654 69.1325 32.357C68.8397 31.6486 68.3102 31.0637 67.6344 30.7021C66.9585 30.3405 66.1781 30.2246 65.4263 30.3741C64.6745 30.5236 63.9979 30.9293 63.5118 31.522C63.0257 32.1147 62.7603 32.8576 62.7608 33.6241C62.7607 34.4992 63.1077 35.3386 63.7256 35.9583ZM66.066 35.1616C66.3716 35.1616 66.6703 35.0709 66.9242 34.901C67.1782 34.7311 67.3761 34.4896 67.4927 34.2072C67.6094 33.9248 67.6396 33.6141 67.5795 33.3145C67.5195 33.0149 67.3718 32.7398 67.1553 32.5242C66.9388 32.3085 66.6632 32.162 66.3633 32.1032C66.0635 32.0443 65.7529 32.0758 65.4709 32.1936C65.189 32.3113 64.9483 32.5102 64.7795 32.7648C64.6106 33.0195 64.5211 33.3186 64.5223 33.6241C64.524 34.0325 64.6873 34.4235 64.9767 34.7117C65.266 34.9998 65.6577 35.1616 66.066 35.1616ZM57.7813 43.8758C57.5497 43.8567 57.3199 43.9296 57.1416 44.0788C56.9634 44.2279 56.8511 44.4412 56.8289 44.6725L56.7729 45.2514C56.7692 45.4743 56.8498 45.6903 56.9987 45.8563C57.1475 46.0222 57.3535 46.1258 57.5755 46.1463C57.7975 46.1667 58.019 46.1026 58.1957 45.9666C58.3723 45.8307 58.4911 45.633 58.5282 45.4132L58.578 44.8344C58.5891 44.719 58.5773 44.6026 58.5432 44.4918C58.5091 44.3811 58.4534 44.2782 58.3794 44.1891C58.3053 44.0999 58.2143 44.0264 58.1116 43.9726C58.009 43.9188 57.8967 43.8859 57.7813 43.8758ZM58.9452 40.8445L59.8665 30.8854C59.8685 30.6631 59.7867 30.4482 59.6373 30.2836C59.488 30.1189 59.2821 30.0166 59.0607 29.997C58.8393 29.9773 58.6186 30.0419 58.4426 30.1777C58.2666 30.3135 58.1483 30.5106 58.1112 30.7298L57.1962 40.6889C57.1855 40.8037 57.1977 40.9195 57.2318 41.0297C57.2659 41.1399 57.3214 41.2422 57.3951 41.331C57.4688 41.4197 57.5592 41.493 57.6613 41.5468C57.7633 41.6006 57.8749 41.6337 57.9898 41.6443C58.1046 41.655 58.2205 41.6429 58.3306 41.6087C58.4408 41.5746 58.5432 41.5191 58.6319 41.4454C58.7206 41.3717 58.7939 41.2813 58.8477 41.1792C58.9015 41.0772 58.9346 40.9655 58.9452 40.8507V40.8445ZM106.88 36.8359L54.4823 0.734215C54.334 0.629169 54.1568 0.572754 53.975 0.572754C53.7933 0.572754 53.616 0.629169 53.4677 0.734215L1.08289 36.8359C0.984619 36.9015 0.900581 36.9861 0.835813 37.0849C0.771046 37.1837 0.726883 37.2945 0.70596 37.4107C0.685038 37.5269 0.687788 37.6462 0.714052 37.7614C0.740316 37.8765 0.789542 37.9852 0.858798 38.0808C0.895325 38.1327 0.937044 38.1806 0.983294 38.224L5.86325 43.4401L0.945949 48.6624C0.791408 48.8254 0.705276 49.0415 0.705276 49.2661C0.705276 49.4908 0.791408 49.7069 0.945949 49.8699L5.86325 55.0922L0.945949 60.3519C0.793216 60.5146 0.708202 60.7294 0.708202 60.9525C0.708202 61.1757 0.793216 61.3905 0.945949 61.5532L5.86325 66.8128L0.945949 72.0351C0.865524 72.1187 0.802593 72.2175 0.760857 72.3258C0.719121 72.434 0.699423 72.5495 0.702902 72.6654C0.70638 72.7814 0.732976 72.8955 0.781125 73.001C0.829274 73.1065 0.898003 73.2014 0.983294 73.28L5.86325 78.5023L0.945949 83.7246C0.866294 83.8086 0.804035 83.9076 0.762776 84.0157C0.721516 84.1239 0.702071 84.2391 0.705542 84.3548C0.709013 84.4706 0.735336 84.5844 0.783006 84.6899C0.830675 84.7954 0.898746 84.8904 0.983294 84.9695L5.86325 90.1856L0.945949 95.4079C0.866294 95.4919 0.804035 95.5908 0.762776 95.699C0.721516 95.8071 0.702071 95.9224 0.705542 96.0381C0.709013 96.1538 0.735336 96.2677 0.783006 96.3732C0.830675 96.4787 0.898746 96.5737 0.983294 96.6528L5.86325 101.869L0.945949 107.091C0.866294 107.175 0.804035 107.274 0.762776 107.382C0.721516 107.49 0.702071 107.606 0.705542 107.721C0.709013 107.837 0.735336 107.951 0.783006 108.056C0.830675 108.162 0.898746 108.257 0.983294 108.336C1.15236 108.492 1.37547 108.577 1.60574 108.573H106.407C106.585 108.575 106.759 108.524 106.908 108.426C107.056 108.328 107.172 108.188 107.239 108.023C107.306 107.858 107.322 107.677 107.285 107.503C107.247 107.329 107.158 107.17 107.029 107.048L102.149 101.869L107.066 96.6092C107.219 96.4465 107.304 96.2317 107.304 96.0086C107.304 95.7854 107.219 95.5706 107.066 95.4079L102.149 90.1856L107.066 84.9259C107.219 84.7632 107.304 84.5484 107.304 84.3253C107.304 84.1021 107.219 83.8873 107.066 83.7246L102.149 78.5023L107.066 73.2427C107.219 73.08 107.304 72.8652 107.304 72.642C107.304 72.4189 107.219 72.2041 107.066 72.0414L102.149 66.7817L107.066 61.5594C107.221 61.3964 107.307 61.1803 107.307 60.9556C107.307 60.731 107.221 60.5149 107.066 60.3519L102.149 55.1296L107.066 49.8699C107.219 49.7072 107.304 49.4924 107.304 49.2693C107.304 49.0461 107.219 48.8313 107.066 48.6686L102.149 43.4463L107.066 38.1866C107.226 38.0162 107.311 37.7897 107.304 37.5565C107.297 37.3233 107.198 37.1023 107.029 36.9418L106.929 36.8608L106.88 36.8359ZM54.0093 2.52686L105.05 37.7198L100.3 42.799C100.131 42.9595 100.032 43.1805 100.025 43.4137C100.018 43.6469 100.104 43.8734 100.263 44.0438L105.187 49.2661L100.3 54.4822C100.131 54.6428 100.032 54.8638 100.025 55.097C100.018 55.3302 100.104 55.5567 100.263 55.7271L105.18 60.9432L100.263 66.1655C100.112 66.3289 100.028 66.5434 100.028 66.7662C100.028 66.9889 100.112 67.2034 100.263 67.3668L105.187 72.6264L100.3 77.8488C100.131 78.0093 100.032 78.2303 100.025 78.4635C100.018 78.6967 100.104 78.9232 100.263 79.0936L105.187 84.3159L100.3 89.532C100.131 89.6926 100.032 89.9136 100.025 90.1468C100.018 90.38 100.104 90.6065 100.263 90.7769L105.187 95.9992L100.3 101.222C100.216 101.301 100.148 101.396 100.1 101.501C100.052 101.607 100.026 101.72 100.023 101.836C100.019 101.952 100.039 102.067 100.08 102.175C100.121 102.283 100.183 102.382 100.263 102.466L104.346 106.824H3.65358L7.74304 102.466C7.89441 102.303 7.97849 102.088 7.97849 101.866C7.97849 101.643 7.89441 101.428 7.74304 101.265L2.81951 96.0054L7.74304 90.7831C7.89441 90.6197 7.97849 90.4052 7.97849 90.1825C7.97849 89.9597 7.89441 89.7452 7.74304 89.5818L2.81951 84.3222L7.74304 79.0999C7.89441 78.9365 7.97849 78.7219 7.97849 78.4992C7.97849 78.2765 7.89441 78.062 7.74304 77.8986L2.81951 72.6389L7.74304 67.4166C7.89441 67.2532 7.97849 67.0387 7.97849 66.8159C7.97849 66.5932 7.89441 66.3787 7.74304 66.2153L2.81951 60.9494L7.70568 55.7271C7.79023 55.648 7.8583 55.553 7.90597 55.4475C7.95364 55.342 7.97998 55.2281 7.98345 55.1124C7.98692 54.9967 7.96746 54.8815 7.9262 54.7733C7.88494 54.6652 7.8227 54.5662 7.74304 54.4822L2.82572 49.2599L7.74304 44.0438C7.89441 43.8804 7.97849 43.6659 7.97849 43.4432C7.97849 43.2205 7.89441 43.0059 7.74304 42.8425L2.96889 37.7198L54.0093 2.52686Z" fill="#DB653C"/>
</svg>
