<svg width="78" height="103" viewBox="0 0 78 103" fill="none" xmlns="http://www.w3.org/2000/svg">
<path fill-rule="evenodd" clip-rule="evenodd" d="M8.82915 53.845H69.183C69.4294 53.845 69.6657 53.7472 69.8399 53.5729C70.0141 53.3987 70.112 53.1624 70.112 52.916C70.112 52.6696 70.0141 52.4333 69.8399 52.2591C69.6657 52.0849 69.4294 51.987 69.183 51.987H8.82915C8.58276 51.987 8.34646 52.0849 8.17224 52.2591C7.99801 52.4333 7.90014 52.6696 7.90014 52.916C7.90014 53.1624 7.99801 53.3987 8.17224 53.5729C8.34646 53.7472 8.58276 53.845 8.82915 53.845ZM59.3039 20.06H75.6142V100.211H2.39141V2.4543H58.3749V19.131C58.3766 19.3768 58.4751 19.6121 58.6489 19.786C58.8228 19.9598 59.0581 20.0583 59.3039 20.06ZM77.4657 19.1506V101.14C77.4657 101.385 77.3685 101.619 77.1955 101.792C77.0225 101.965 76.7879 102.063 76.5432 102.063H1.46893C1.34724 102.064 1.22657 102.04 1.1139 101.994C1.00122 101.948 0.898766 101.881 0.812411 101.795C0.726057 101.709 0.657524 101.607 0.610756 101.495C0.563988 101.382 0.539914 101.262 0.539917 101.14V1.52529C0.539914 1.4036 0.563988 1.28311 0.610756 1.17076C0.657524 1.05841 0.726057 0.956415 0.812411 0.870669C0.898766 0.784922 1.00122 0.717102 1.1139 0.67113C1.22657 0.625157 1.34724 0.601943 1.46893 0.602806H58.9376C59.0594 0.603152 59.1799 0.627602 59.2922 0.674763C59.4045 0.721925 59.5063 0.790854 59.5918 0.877577L59.9451 1.23087L77.1778 18.4571C77.3488 18.6321 77.445 18.8667 77.4461 19.1113L77.4657 19.1506ZM74.2992 18.2019L60.233 4.13571V18.2019H74.2992ZM52.4867 43.2659V25.0584L39.0028 15.7681L25.5254 25.0584V43.2659H52.4867ZM50.6287 26.0528L39.0028 18.0384L27.3769 26.0528V41.4406H50.6287V26.0528ZM61.1816 85.0655C60.6976 85.4743 60.3036 85.9792 60.0247 86.5481C59.7458 87.117 59.588 87.7376 59.5612 88.3707C59.5344 89.0037 59.6393 89.6354 59.8692 90.2258C60.0991 90.8162 60.449 91.3526 60.8968 91.8008C61.3446 92.2491 61.8806 92.5995 62.4708 92.83C63.061 93.0605 63.6926 93.166 64.3256 93.1399C64.9587 93.1138 65.5795 92.9566 66.1487 92.6782C66.7179 92.3999 67.2231 92.0065 67.6324 91.5228C68.1165 91.114 68.5104 90.6091 68.7894 90.0402C69.0683 89.4713 69.2261 88.8507 69.2529 88.2177C69.2796 87.5846 69.1748 86.9529 68.9449 86.3625C68.715 85.7721 68.365 85.2357 67.9172 84.7875C67.4694 84.3392 66.9335 83.9888 66.3433 83.7583C65.7531 83.5278 65.1215 83.4223 64.4884 83.4484C63.8554 83.4745 63.2346 83.6317 62.6654 83.9101C62.0962 84.1884 61.591 84.5818 61.1816 85.0655ZM61.6985 88.2974C61.7014 88.922 61.9206 89.5262 62.3187 90.0074C62.7169 90.4886 63.2695 90.817 63.8825 90.9367C64.4955 91.0565 65.131 90.9602 65.681 90.6642C66.231 90.3682 66.6614 89.8908 66.8991 89.3132C67.1368 88.7356 67.1671 88.0936 66.9848 87.4962C66.8025 86.8988 66.4189 86.383 65.8992 86.0366C65.3795 85.6901 64.7559 85.5344 64.1344 85.596C63.5128 85.6575 62.9318 85.9324 62.4901 86.374C62.2379 86.6266 62.0382 86.9266 61.9023 87.2567C61.7664 87.5868 61.6972 87.9405 61.6985 88.2974ZM39.0028 87.3684H8.82915C8.70104 87.3576 8.57208 87.3736 8.45044 87.4152C8.3288 87.4568 8.21713 87.5232 8.12248 87.6103C8.02784 87.6973 7.95228 87.803 7.9006 87.9207C7.84892 88.0384 7.82224 88.1656 7.82224 88.2942C7.82224 88.4227 7.84892 88.5499 7.9006 88.6676C7.95228 88.7853 8.02784 88.891 8.12248 88.9781C8.21713 89.0651 8.3288 89.1315 8.45044 89.1731C8.57208 89.2148 8.70104 89.2307 8.82915 89.2199H39.0028C39.1309 89.2307 39.2599 89.2148 39.3815 89.1731C39.5032 89.1315 39.6148 89.0651 39.7095 88.9781C39.8041 88.891 39.8797 88.7853 39.9314 88.6676C39.983 88.5499 40.0097 88.4227 40.0097 88.2942C40.0097 88.1656 39.983 88.0384 39.9314 87.9207C39.8797 87.803 39.8041 87.6973 39.7095 87.6103C39.6148 87.5232 39.5032 87.4568 39.3815 87.4152C39.2599 87.3736 39.1309 87.3576 39.0028 87.3684ZM69.183 76.6388H8.82915C8.70104 76.6281 8.57208 76.644 8.45044 76.6856C8.3288 76.7272 8.21713 76.7937 8.12248 76.8807C8.02784 76.9677 7.95228 77.0734 7.9006 77.1911C7.84892 77.3089 7.82224 77.436 7.82224 77.5646C7.82224 77.6931 7.84892 77.8203 7.9006 77.938C7.95228 78.0558 8.02784 78.1615 8.12248 78.2485C8.21713 78.3355 8.3288 78.4019 8.45044 78.4436C8.57208 78.4852 8.70104 78.5011 8.82915 78.4903H69.183C69.4151 78.4708 69.6314 78.3648 69.789 78.1934C69.9467 78.0219 70.0341 77.7975 70.0341 77.5646C70.0341 77.3317 69.9467 77.1073 69.789 76.9358C69.6314 76.7644 69.4151 76.6584 69.183 76.6388ZM69.183 68.4281H8.82915C8.58276 68.4281 8.34646 68.526 8.17224 68.7002C7.99801 68.8744 7.90014 69.1107 7.90014 69.3571C7.90014 69.6035 7.99801 69.8398 8.17224 70.014C8.34646 70.1883 8.58276 70.2861 8.82915 70.2861H69.183C69.4294 70.2861 69.6657 70.1883 69.8399 70.014C70.0141 69.8398 70.112 69.6035 70.112 69.3571C70.112 69.1107 70.0141 68.8744 69.8399 68.7002C69.6657 68.526 69.4294 68.4281 69.183 68.4281ZM69.183 60.2239H8.82915C8.70104 60.2131 8.57208 60.2291 8.45044 60.2707C8.3288 60.3123 8.21713 60.3787 8.12248 60.4658C8.02784 60.5528 7.95228 60.6585 7.9006 60.7762C7.84892 60.8939 7.82224 61.0211 7.82224 61.1496C7.82224 61.2782 7.84892 61.4054 7.9006 61.5231C7.95228 61.6408 8.02784 61.7465 8.12248 61.8336C8.21713 61.9206 8.3288 61.987 8.45044 62.0286C8.57208 62.0703 8.70104 62.0862 8.82915 62.0754H69.183C69.4151 62.0559 69.6314 61.9499 69.789 61.7784C69.9467 61.607 70.0341 61.3826 70.0341 61.1496C70.0341 60.9167 69.9467 60.6923 69.789 60.5209C69.6314 60.3494 69.4151 60.2434 69.183 60.2239Z" fill="#DB653C"/>
</svg>
