<svg width="130" height="130" viewBox="0 0 130 130" fill="none" xmlns="http://www.w3.org/2000/svg">
<rect x="6" y="6" width="118" height="118" rx="59" fill="#F1F1F1"/>
<path d="M40.2688 43.3702V90.5533L38.1965 88.4882V43.3702H40.2688Z" fill="white"/>
<path d="M86.9231 90.0241H39.7329L41.8052 92.0963H86.9231V90.0241Z" fill="white"/>
<path d="M39.3613 36.3813L35.6312 32.6298L30.6935 32.5584L29 34.2376L35.2239 40.4615L39.154 44.3917L42.6411 40.9046C44.3284 39.2163 46.6175 38.2678 49.0044 38.2678C51.3913 38.2678 53.6803 39.2163 55.3676 40.9046L88.8452 74.3893C90.5334 76.0766 91.482 78.3656 91.482 80.7525C91.482 83.1394 90.5334 85.4285 88.8452 87.1158L85.3581 90.61L89.2882 94.5401L95.5121 100.764L97.2056 99.0705L97.127 94.1328L93.397 90.4028C98.6573 84.7829 98.5214 76.0064 93.0897 70.552L59.212 36.6743C53.7537 31.2467 44.9773 31.1171 39.3613 36.3813Z" fill="#F78078"/>
<path d="M38.8367 89.1221L90.7589 37.1999L93.0377 39.4787L41.1155 91.4009L38.8367 89.1221Z" fill="white"/>
<path d="M97.3897 35.1105L93.0241 39.4761L90.7453 37.1973L95.1109 32.8317L97.3897 35.1105Z" fill="#F78078"/>
<path d="M101 39.8259L90.4101 29.236H101V39.8259Z" fill="#F78078"/>
<path d="M51.6233 76.3331L44.5633 83.3931L38.8968 81.771L45.9567 74.7111L51.6233 76.3331Z" fill="#F78078"/>
<path d="M53.8956 78.6128L46.8357 85.6728L48.4577 91.3393L55.5177 84.2794L53.8956 78.6128Z" fill="#F78078"/>
<rect x="1.25" y="1.25" width="127.5" height="127.5" rx="63.75" stroke="#F1F1F1" stroke-width="2.5"/>
</svg>
