<svg width="20" height="20" viewBox="0 0 20 20" fill="none" xmlns="http://www.w3.org/2000/svg">
<path d="M17.8745 0.378418H2.2262C1.37115 0.378418 0.624084 0.993651 0.624084 1.83866V17.5217C0.624084 18.3713 1.37115 19.1284 2.2262 19.1284H17.8699C18.7295 19.1284 19.3741 18.3663 19.3741 17.5217V1.83866C19.3791 0.993651 18.7295 0.378418 17.8745 0.378418ZM6.43616 16.0074H3.75006V7.65575H6.43616V16.0074ZM5.18602 6.38594H5.16677C4.30711 6.38594 3.75047 5.74602 3.75047 4.94496C3.75047 4.12925 4.32176 3.50439 5.20067 3.50439C6.07957 3.50439 6.61738 4.12465 6.63663 4.94496C6.63621 5.74602 6.07957 6.38594 5.18602 6.38594ZM16.2531 16.0074H13.567V11.4409C13.567 10.3469 13.1761 9.59939 12.2043 9.59939C11.4618 9.59939 11.0224 10.1016 10.8269 10.5909C10.7537 10.7667 10.734 11.0061 10.734 11.2505V16.0074H8.0479V7.65575H10.734V8.818C11.1249 8.26136 11.7355 7.4603 13.1564 7.4603C14.9197 7.4603 16.2535 8.62255 16.2535 11.1283L16.2531 16.0074Z" fill="#DB653C"/>
</svg>
