<svg width="107" height="109" viewBox="0 0 107 109" fill="none" xmlns="http://www.w3.org/2000/svg">
<path fill-rule="evenodd" clip-rule="evenodd" d="M58.1377 47.1349C58.4291 46.9136 58.6653 46.6279 58.8279 46.3002C58.9905 45.9725 59.0751 45.6116 59.0751 45.2458C59.0751 44.88 58.9905 44.5191 58.8279 44.1913C58.6653 43.8636 58.4291 43.578 58.1377 43.3567C55.2948 41.4986 49.2188 42.2914 49.2188 37.5966C49.2188 34.8094 51.5043 33.453 54.2976 33.2238V30.5915H55.4373V33.1991C57.0864 33.2375 58.6932 33.7281 60.0825 34.6174L59.5127 35.9677C56.162 33.8432 50.8849 34.2148 50.8849 37.547C50.8849 41.9322 60.7453 39.2751 60.7453 45.1219C60.7453 47.9029 58.3545 49.315 55.4373 49.4575V52.0836H54.2976V49.4761C52.3776 49.3708 50.1107 48.7142 48.8286 47.395L49.4913 46.0943C51.56 48.1011 56.1929 48.7452 58.1625 47.1225L58.1377 47.1349ZM65.6383 63.5853L59.1101 70.1134C59.5003 69.1844 60.8753 65.3319 59.1101 65.3319H34.0071C31.6721 65.3815 29.3061 66.038 27.8134 67.5555L16.0454 79.534L14.3112 77.806C14.1469 77.6417 13.9242 77.5494 13.6918 77.5494C13.4595 77.5494 13.2367 77.6417 13.0725 77.806C12.9082 77.9703 12.8159 78.1931 12.8159 78.4254C12.8159 78.6577 12.9082 78.8805 13.0725 79.0447L33.1214 99.0937C33.29 99.2343 33.5051 99.3068 33.7244 99.2968C33.9437 99.2869 34.1514 99.1954 34.3066 99.0401C34.4619 98.8849 34.5534 98.6772 34.5633 98.4579C34.5732 98.2386 34.5008 98.0235 34.3602 97.855L32.5578 96.0588L69.7942 84.1669C69.9275 84.1269 70.0488 84.0546 70.1473 83.9563V83.9563L88.3196 65.8274C89.038 65.1089 88.1275 64.3347 87.5825 63.8206C84.2007 60.6371 79.4812 60.3894 75.9508 63.48C72.9406 61.0025 68.4502 60.7733 65.6383 63.5853V63.5853ZM57.6237 74.0774L66.877 64.8302C69.0015 62.6996 72.3832 62.9164 74.6873 64.7187L65.341 74.0712L57.6237 74.0774ZM66.3258 75.5639L76.5887 65.3319C79.4626 62.3156 83.4823 62.3589 86.4986 65.2204L69.1191 82.5999L31.2324 94.6961L17.3399 80.8037L29.1079 68.7942C30.2166 67.6422 32.2048 67.159 34.0071 67.1157H58.1625C57.7785 70.0267 55.2762 73.9845 52.4395 74.1145H40.4052H37.7667V75.8612H52.1051L65.7312 75.824C65.8465 75.8237 65.9606 75.8005 66.0669 75.7559C66.1732 75.7112 66.2696 75.646 66.3506 75.5639H66.3258ZM66.2762 52.8578C76.5144 42.6258 69.2244 25.0606 54.7622 25.0606C40.2999 25.0606 33.0161 42.6258 43.2481 52.8578C44.7597 54.3706 46.5547 55.5707 48.5303 56.3895C50.5059 57.2083 52.6236 57.6297 54.7622 57.6297C56.9008 57.6297 59.0184 57.2083 60.994 56.3895C62.9697 55.5707 64.7646 54.3706 66.2762 52.8578V52.8578ZM69.2926 41.3438C69.2926 37.4901 67.7617 33.7942 65.0367 31.0692C62.3117 28.3443 58.6159 26.8134 54.7622 26.8134C41.8607 26.8134 35.3574 42.4896 44.4869 51.6191C53.6163 60.7486 69.2926 54.2514 69.2926 41.3438V41.3438ZM106.653 37.3364C88.9761 25.1555 71.3034 12.9746 53.6349 0.793701C35.9623 12.9829 18.2917 25.1638 0.623169 37.3364V108.428H106.653V37.3364ZM53.6349 2.91813L2.37599 38.2221V106.675H104.869V38.2531L53.6349 2.91813Z" fill="#DB653C"/>
</svg>
