<svg width="87" height="108" viewBox="0 0 87 108" fill="none" xmlns="http://www.w3.org/2000/svg">
<path fill-rule="evenodd" clip-rule="evenodd" d="M5.36256 29.8536C3.41775 27.1092 2.30381 23.8631 2.15375 20.5028H6.63113C6.70131 23.718 7.36694 26.8925 8.59428 29.8651C8.1121 29.8651 6.43024 29.7905 5.36256 29.8651V29.8536ZM71.3121 21.978V34.3253H83.6594L71.3121 21.978V21.978ZM77.3566 95.8032C77.3566 98.9488 72.5979 98.9144 72.5979 95.8032C72.5979 92.692 77.3566 92.6633 77.3566 95.8032ZM74.9801 91.785C74.1854 91.785 73.4085 92.0207 72.7478 92.4622C72.087 92.9037 71.5719 93.5313 71.2678 94.2655C70.9637 94.9997 70.8841 95.8077 71.0392 96.5871C71.1942 97.3665 71.5769 98.0825 72.1388 98.6445C72.7008 99.2064 73.4168 99.5891 74.1962 99.7442C74.9757 99.8992 75.7836 99.8196 76.5178 99.5155C77.252 99.2114 77.8796 98.6964 78.3211 98.0356C78.7627 97.3748 78.9983 96.5979 78.9983 95.8032C78.9983 94.7375 78.575 93.7155 77.8214 92.9619C77.0679 92.2084 76.0458 91.785 74.9801 91.785V91.785ZM79.1648 85.5626H55.8537L55.5494 85.2354C56.1866 84.5581 60.2335 80.4481 60.3483 79.9888H79.1648C79.3684 79.9717 79.5582 79.8787 79.6965 79.7283C79.8348 79.5778 79.9115 79.381 79.9115 79.1766C79.9115 78.9723 79.8348 78.7754 79.6965 78.6249C79.5582 78.4745 79.3684 78.3815 79.1648 78.3644H59.338L55.5494 74.3117L56.9845 72.7906H79.1648C79.3809 72.7906 79.5883 72.7047 79.7411 72.5518C79.894 72.399 79.9799 72.1917 79.9799 71.9755C79.9799 71.7593 79.894 71.552 79.7411 71.3991C79.5883 71.2462 79.3809 71.1604 79.1648 71.1604H58.4999L60.1359 69.4383C60.2767 69.2882 60.3551 69.0902 60.3551 68.8844C60.3551 68.6785 60.2767 68.4805 60.1359 68.3304L57.5815 65.6038H79.1418C79.3454 65.5867 79.5352 65.4937 79.6735 65.3432C79.8118 65.1928 79.8886 64.9959 79.8886 64.7916C79.8886 64.5872 79.8118 64.3903 79.6735 64.2399C79.5352 64.0894 79.3454 63.9965 79.1418 63.9793H56.0833L55.5437 63.4053L60.1359 58.5146C60.292 58.3665 60.3832 58.1628 60.3896 57.9477C60.3961 57.7326 60.3173 57.5237 60.1703 57.3666L58.1325 55.2082C59.6194 55.7516 61.2112 55.946 62.7851 55.7765C64.3591 55.607 65.873 55.0782 67.2101 54.2307C68.5472 53.3833 69.6717 52.24 70.4968 50.889C71.3219 49.538 71.8256 48.0155 71.9689 46.4389C72.1122 44.8624 71.8914 43.274 71.3234 41.7964C70.7555 40.3188 69.8556 38.9914 68.6932 37.9167C67.5308 36.8421 66.1371 36.0489 64.6195 35.5983C63.102 35.1478 61.5012 35.052 59.9407 35.3183L55.5609 30.6343L60.1531 25.7436C60.2939 25.5936 60.3723 25.3955 60.3723 25.1897C60.3723 24.9839 60.2939 24.7858 60.1531 24.6357L56.2899 20.5028H69.6704V35.1346C69.6696 35.2419 69.6902 35.3482 69.7309 35.4475C69.7716 35.5467 69.8316 35.6369 69.9075 35.7127C69.9833 35.7886 70.0734 35.8486 70.1727 35.8893C70.2719 35.9299 70.3783 35.9505 70.4855 35.9497H84.7902V106.273H56.3186L60.1531 102.198C60.2939 102.048 60.3723 101.85 60.3723 101.644C60.3723 101.438 60.2939 101.24 60.1531 101.09L55.5609 96.1648L60.1531 91.2741C60.2939 91.1241 60.3723 90.926 60.3723 90.7202C60.3723 90.5144 60.2939 90.3163 60.1531 90.1663L57.3806 87.1928H79.1935C79.4097 87.1928 79.617 87.107 79.7699 86.9541C79.9227 86.8012 80.0086 86.5939 80.0086 86.3777C80.0086 86.1615 79.9227 85.9542 79.7699 85.8014C79.617 85.6485 79.4097 85.5626 79.1935 85.5626H79.1648ZM54.786 107.892C53.9249 107.892 54.2636 108.036 53.2878 107.117L58.454 101.635L53.8618 96.7503C53.7071 96.6015 53.6168 96.398 53.6104 96.1833C53.6039 95.9687 53.6818 95.7601 53.8274 95.6023L58.4196 90.7116L53.8274 85.8209C53.7494 85.748 53.6866 85.6604 53.6427 85.5631C53.5987 85.4658 53.5744 85.3608 53.5712 85.2541C53.568 85.1474 53.5859 85.0411 53.624 84.9413C53.662 84.8416 53.7195 84.7503 53.7929 84.6729L58.3851 79.7822L53.7929 74.8915C53.6382 74.7427 53.5479 74.5391 53.5415 74.3245C53.535 74.1099 53.6129 73.9013 53.7585 73.7435L58.3507 68.8585L53.7585 63.9564C53.6071 63.8037 53.5221 63.5974 53.5221 63.3823C53.5221 63.1673 53.6071 62.961 53.7585 62.8083L58.3507 57.8832L53.7585 52.9925C53.6418 52.8683 53.5674 52.7104 53.5458 52.5413C53.5241 52.3723 53.5564 52.2007 53.6379 52.0511L58.3679 46.9882L53.7757 42.1033C53.6196 41.9552 53.5284 41.7514 53.5219 41.5363C53.5155 41.3213 53.5943 41.1124 53.7413 40.9552L58.3334 36.0645L53.7413 31.1796C53.5865 31.0308 53.4962 30.8272 53.4898 30.6126C53.4834 30.398 53.5613 30.1894 53.7068 30.0316L58.299 25.1409L53.1328 19.6245L53.9594 18.8496H70.032C70.2475 18.8521 70.4535 18.9386 70.6061 19.0907L86.1047 34.641C86.1577 34.6987 86.1982 34.7667 86.2239 34.8408C86.2495 34.9148 86.2598 34.9933 86.254 35.0715V107.089C86.2524 107.304 86.1659 107.51 86.0132 107.661C85.8605 107.813 85.6541 107.898 85.4389 107.898L54.786 107.892ZM55.9512 52.0626C57.614 53.5139 59.7659 54.2796 61.9716 54.2051C64.1774 54.1305 66.2726 53.2211 67.8335 51.6608C73.304 46.1903 69.4064 36.7993 61.6743 36.7993C61.0646 36.7981 60.4566 36.8615 59.8603 36.9887L55.5494 41.5809L60.1416 46.506C60.2825 46.6561 60.3609 46.8542 60.3609 47.06C60.3609 47.2658 60.2825 47.4639 60.1416 47.6139L55.9398 52.0798L55.9512 52.0626ZM34.9018 52.849C36.4343 54.3822 38.4103 55.3946 40.55 55.7428C42.6897 56.091 44.8847 55.7574 46.8243 54.7892L49.8207 57.9693L45.2285 62.8944C45.1528 62.9696 45.0928 63.0591 45.0518 63.1576C45.0108 63.2561 44.9897 63.3617 44.9897 63.4684C44.9897 63.5751 45.0108 63.6808 45.0518 63.7793C45.0928 63.8778 45.1528 63.9672 45.2285 64.0425H26.2111C26.0074 64.0596 25.8177 64.1526 25.6794 64.303C25.5411 64.4535 25.4643 64.6504 25.4643 64.8547C25.4643 65.0591 25.5411 65.256 25.6794 65.4064C25.8177 65.5568 26.0074 65.6498 26.2111 65.667H46.7611L49.8264 68.9446L47.6623 71.2407H26.2111C25.9949 71.2407 25.7876 71.3266 25.6347 71.4795C25.4818 71.6323 25.396 71.8397 25.396 72.0558C25.396 72.272 25.4818 72.4793 25.6347 72.6322C25.7876 72.7851 25.9949 72.871 26.2111 72.871H46.1297C45.4753 73.5598 44.5282 74.2486 45.2572 74.9776L48.4947 78.4218H26.2111C26.0074 78.4389 25.8177 78.5319 25.6794 78.6823C25.5411 78.8328 25.4643 79.0296 25.4643 79.234C25.4643 79.4383 25.5411 79.6352 25.6794 79.7857C25.8177 79.9361 26.0074 80.0291 26.2111 80.0462H49.637L45.2227 84.736C45.1119 84.8512 45.0379 84.9969 45.0103 85.1544C44.9827 85.3118 45.0027 85.474 45.0678 85.62H26.2111C25.9949 85.62 25.7876 85.7059 25.6347 85.8588C25.4818 86.0116 25.396 86.2189 25.396 86.4351C25.396 86.6513 25.4818 86.8586 25.6347 87.0115C25.7876 87.1644 25.9949 87.2502 26.2111 87.2502H46.5315L49.8207 90.769L45.8025 95.034H26.2111C25.9949 95.034 25.7876 95.1199 25.6347 95.2727C25.4818 95.4256 25.396 95.6329 25.396 95.8491C25.396 96.0653 25.4818 96.2726 25.6347 96.4255C25.7876 96.5784 25.9949 96.6642 26.2111 96.6642H45.1538L49.8494 101.693L45.4868 106.325H20.5684V38.9232H18.9382V107.089C18.9397 107.304 19.0263 107.51 19.179 107.661C19.3317 107.813 19.5381 107.898 19.7533 107.898H46.1584L51.5313 102.198C51.6709 102.047 51.7484 101.849 51.7484 101.644C51.7484 101.438 51.6709 101.241 51.5313 101.09L46.9391 96.1648L51.5313 91.2741C51.6709 91.1235 51.7484 90.9256 51.7484 90.7202C51.7484 90.5148 51.6709 90.317 51.5313 90.1663L46.9391 85.2412C47.5763 84.5638 51.6231 80.4538 51.7437 79.9946C51.8929 79.4206 51.2844 78.9613 50.7276 78.3701L46.9391 74.3175L51.5313 69.4268C51.6709 69.2761 51.7484 69.0783 51.7484 68.8729C51.7484 68.6675 51.6709 68.4696 51.5313 68.3189L46.9391 63.3881L51.5313 58.4974C51.6874 58.3493 51.7786 58.1455 51.785 57.9305C51.7915 57.7154 51.7127 57.5065 51.5657 57.3493L46.9735 52.4644L51.5657 47.5565C52.1397 46.8849 51.3935 46.3051 50.9343 45.8344L46.9161 41.5694L51.5083 36.673C51.6479 36.5223 51.7254 36.3245 51.7254 36.1191C51.7254 35.9137 51.6479 35.7158 51.5083 35.5651L46.9161 30.64L51.5083 25.7493C51.6479 25.5987 51.7254 25.4008 51.7254 25.1954C51.7254 24.99 51.6479 24.7922 51.5083 24.6415L46.1354 18.9012H38.9601C38.8945 15.0371 37.5727 11.2994 35.1945 8.25311C32.4903 4.60134 28.5818 2.02344 24.1603 0.975226C19.7388 -0.0729837 15.089 0.476024 11.0332 2.52517C6.97737 4.57432 3.77679 7.9916 1.99735 12.1728C0.217907 16.3539 -0.0257782 21.0297 1.30942 25.3731C2.64463 29.7166 5.47271 33.4481 9.29355 35.9077C13.1144 38.3673 17.6819 39.3966 22.1884 38.8137C26.6949 38.2307 30.8502 36.0731 33.9194 32.7222C36.9886 29.3713 38.7741 25.043 38.9601 20.5028H45.4409L49.8035 25.1696L45.2113 30.0603C45.1378 30.1377 45.0804 30.229 45.0424 30.3287C45.0043 30.4285 44.9864 30.5347 44.9896 30.6415C44.9928 30.7482 45.017 30.8532 45.061 30.9505C45.105 31.0478 45.1677 31.1354 45.2457 31.2083L49.8379 36.0933L48.6324 37.3791C46.5644 35.7433 43.9492 34.9602 41.3225 35.1899C38.6957 35.4196 36.2562 36.6449 34.5035 38.6148C32.7507 40.5847 31.8175 43.1501 31.8947 45.7858C31.972 48.4214 33.0539 50.9278 34.919 52.7916L34.9018 52.849ZM45.6532 53.5436C44.2456 54.1492 42.7031 54.3727 41.1815 54.1914C39.6598 54.0102 38.213 53.4306 36.987 52.5112C35.7611 51.5918 34.7995 50.3651 34.1993 48.9552C33.5992 47.5452 33.3817 46.0018 33.5689 44.4809C33.7561 42.96 34.3413 41.5154 35.2654 40.293C36.1896 39.0707 37.4199 38.1139 38.8322 37.5192C40.2445 36.9245 41.7887 36.713 43.3089 36.9061C44.8291 37.0992 46.2714 37.6901 47.4901 38.619L45.194 41.0356C45.1206 41.1131 45.0632 41.2043 45.0251 41.304C44.9871 41.4038 44.9691 41.5101 44.9723 41.6168C44.9755 41.7235 44.9998 41.8285 45.0438 41.9258C45.0877 42.0231 45.1505 42.1107 45.2285 42.1836L49.8207 47.0686L45.2285 51.9593C44.6257 52.5964 45.3203 53.1762 45.6647 53.5378L45.6532 53.5436ZM37.3471 20.5028C37.1999 23.8671 36.0858 27.1177 34.1383 29.8651H30.9066C32.1339 26.8925 32.7996 23.718 32.8698 20.5028H37.3471ZM12.4919 3.63221C11.2341 4.88213 10.1769 6.31882 9.35774 7.89147H6.66557C8.29394 6.08596 10.2774 4.63596 12.4919 3.63221V3.63221ZM29.1386 29.8651H25.0458C25.6031 26.7749 25.895 23.6427 25.9183 20.5028H31.251C31.1827 23.7337 30.4643 26.9178 29.1386 29.8651V29.8651ZM23.3984 29.8651H16.1083C15.5332 26.777 15.2336 23.6439 15.2128 20.5028H24.2824C24.2644 23.644 23.9647 26.7774 23.3869 29.8651H23.3984ZM14.4666 29.8651C13.9123 26.7745 13.6204 23.6426 13.594 20.5028H8.26711C8.33165 23.733 9.04615 26.9171 10.368 29.8651H14.4666ZM6.67131 31.5125H9.36348C10.1786 33.0863 11.2341 34.5233 12.4919 35.7718C10.279 34.7682 8.29734 33.3182 6.67131 31.5125ZM11.2233 31.5125H14.8052C15.1896 33.3212 15.8416 35.0624 16.7397 36.6788C14.5067 35.7488 12.6239 33.8431 11.2233 31.4781V31.5125ZM16.4756 31.5125H23.0367C21.108 39.2504 18.4044 39.2504 16.4756 31.5125ZM24.7186 31.5125H28.3005C26.9056 33.8775 25.0171 35.7833 22.7842 36.7132C23.6879 35.0873 24.3401 33.3338 24.7186 31.5125V31.5125ZM30.1604 31.5125H32.8583C31.2218 33.3107 29.2326 34.7527 27.0147 35.7488C28.2726 34.5003 29.3281 33.0633 30.1431 31.4896L30.1604 31.5125ZM37.3471 18.884H32.8698C32.8002 15.6705 32.1345 12.4979 30.9066 9.52744H34.1383C36.0865 12.2723 37.2008 15.5213 37.3471 18.884V18.884ZM31.2453 18.884H25.9126C25.8893 15.746 25.5973 12.6157 25.0401 9.52744H29.1329C30.4585 12.4727 31.177 15.6549 31.2453 18.884V18.884ZM24.2824 18.884H15.2128C15.2332 15.7429 15.5329 12.6098 16.1083 9.5217H23.3869C23.9648 12.6075 24.2645 15.7389 24.2824 18.8783V18.884ZM13.5825 18.884H8.25562C8.32299 15.6529 9.04145 12.4687 10.368 9.5217H14.4608C13.9064 12.6103 13.6145 15.7404 13.5883 18.8783L13.5825 18.884ZM6.62538 18.884H2.148C2.29898 15.5212 3.41496 12.273 5.36256 9.52744H8.58857C7.36065 12.4979 6.69495 15.6705 6.62538 18.884ZM32.8353 7.89721H30.1374C29.3231 6.32273 28.2697 4.88398 27.0147 3.63221C29.2274 4.63909 31.2103 6.08865 32.8411 7.89147L32.8353 7.89721ZM28.2776 7.89721H24.7186C24.3401 6.07593 23.6879 4.32249 22.7842 2.69656C25.0171 3.63222 26.9056 5.53797 28.3005 7.89721H28.2776ZM23.031 7.89721H16.4756C18.4044 0.165111 21.108 0.165111 23.0367 7.89721H23.031ZM14.7995 7.89721H11.2176C12.6182 5.53797 14.501 3.63222 16.734 2.69656C15.8352 4.32216 15.1851 6.07323 14.8052 7.89147L14.7995 7.89721Z" fill="#DB653C"/>
</svg>
