<svg width="96" height="118" viewBox="0 0 96 118" fill="none" xmlns="http://www.w3.org/2000/svg">
<path fill-rule="evenodd" clip-rule="evenodd" d="M7.78066 71.1638H37.0185V70.372C37.0185 57.3923 21.251 50.8578 12.0626 60.0351C10.7024 61.3905 9.62379 63.0017 8.8889 64.7758C8.15401 66.5498 7.77736 68.4518 7.78066 70.372V71.1638ZM35.4128 69.5803H9.38641C10.0499 58.4294 23.6708 53.2051 31.6159 61.1502C33.872 63.3998 35.2232 66.3999 35.4128 69.5803ZM27.4733 48.8562C26.6373 49.6868 25.6097 50.2986 24.4812 50.6378C23.3527 50.977 22.1581 51.033 21.0028 50.8009C19.8475 50.5689 18.7671 50.0559 17.8571 49.3073C16.9471 48.5586 16.2355 47.5974 15.7851 46.5085C15.3347 45.4197 15.1594 44.2366 15.2746 43.0639C15.3899 41.8912 15.7922 40.7649 16.446 39.7845C17.0998 38.8042 17.985 37.9999 19.0233 37.4428C20.0617 36.8857 21.2212 36.5929 22.3996 36.5902C23.8234 36.5843 25.2167 37.0023 26.402 37.7912C27.5873 38.58 28.5109 39.7039 29.0551 41.0196C29.5993 42.3353 29.7395 43.7832 29.4578 45.1788C29.1761 46.5745 28.4852 47.8547 27.4733 48.8562ZM27.9918 43.7881C27.9918 44.8909 27.6648 45.9688 27.0522 46.8857C26.4395 47.8026 25.5687 48.5172 24.55 48.9392C23.5312 49.3612 22.4101 49.4716 21.3286 49.2565C20.247 49.0414 19.2536 48.5103 18.4738 47.7306C17.6941 46.9509 17.1631 45.9574 16.948 44.8759C16.7328 43.7943 16.8432 42.6733 17.2652 41.6545C17.6872 40.6357 18.4019 39.7649 19.3187 39.1523C20.2356 38.5396 21.3136 38.2127 22.4163 38.2127C23.895 38.2127 25.3132 38.8001 26.3588 39.8457C27.4044 40.8913 27.9918 42.3094 27.9918 43.7881ZM21.1451 110.694L24.5406 107.298C24.6671 107.147 24.7324 106.953 24.7235 106.756C24.7145 106.558 24.6321 106.371 24.4924 106.232C24.3526 106.092 24.1657 106.009 23.9683 106C23.7709 105.992 23.5772 106.057 23.4255 106.183L18.6807 110.928C18.5337 111.076 18.4511 111.277 18.4511 111.486C18.4511 111.695 18.5337 111.895 18.6807 112.043L23.4199 116.782C23.5678 116.93 23.7683 117.013 23.9774 117.013C24.1866 117.013 24.3871 116.93 24.535 116.782C24.6829 116.634 24.7659 116.434 24.7659 116.225C24.7659 116.016 24.6829 115.815 24.535 115.667L21.1395 112.266H44.8298C45.0275 112.25 45.2119 112.159 45.3462 112.013C45.4805 111.867 45.5551 111.676 45.5551 111.477C45.5551 111.279 45.4805 111.088 45.3462 110.941C45.2119 110.795 45.0275 110.705 44.8298 110.688L21.1451 110.694ZM74.8482 110.694H51.1579C50.9601 110.711 50.7758 110.801 50.6415 110.947C50.5072 111.093 50.4326 111.284 50.4326 111.483C50.4326 111.681 50.5072 111.873 50.6415 112.019C50.7758 112.165 50.9601 112.255 51.1579 112.272H74.8482L71.4527 115.673C71.3261 115.825 71.2609 116.018 71.2698 116.216C71.2787 116.413 71.3612 116.6 71.5009 116.74C71.6406 116.879 71.8276 116.962 72.025 116.971C72.2224 116.98 72.416 116.915 72.5678 116.788L77.3125 112.043C77.4596 111.895 77.5422 111.695 77.5422 111.486C77.5422 111.277 77.4596 111.076 77.3125 110.928L72.5789 106.189C72.4272 106.062 72.2336 105.997 72.0362 106.006C71.8387 106.015 71.6518 106.097 71.5121 106.237C71.3723 106.377 71.2899 106.564 71.281 106.761C71.2721 106.959 71.3373 107.152 71.4639 107.304L74.8593 110.7L74.8482 110.694ZM57.2241 103.479C57.2241 95.2276 47.2439 91.1797 41.4733 96.9504C39.3602 99.0635 38.7692 101.305 38.7692 104.265H57.2241V103.479ZM53.4049 98.071C54.6466 99.3119 55.4241 100.942 55.6072 102.688H40.3917C40.5442 101.252 41.0995 99.8888 41.9936 98.7553C42.8876 97.6218 44.084 96.7642 45.4446 96.2815C46.8051 95.7989 48.2745 95.7108 49.683 96.0274C51.0915 96.344 52.3818 97.0525 53.4049 98.071ZM51.8716 91.1073C51.2361 91.7435 50.4536 92.2134 49.5933 92.4754C48.7331 92.7374 47.8215 92.7835 46.9392 92.6096C46.0569 92.4357 45.2311 92.0471 44.5346 91.4782C43.8381 90.9094 43.2925 90.1777 42.9459 89.3479C42.5993 88.5181 42.4625 87.6157 42.5474 86.7205C42.6324 85.8252 42.9366 84.9647 43.4331 84.2149C43.9296 83.4651 44.6031 82.8492 45.3942 82.4215C46.1853 81.9938 47.0695 81.7676 47.9688 81.7628C49.0527 81.7596 50.1132 82.078 51.0162 82.6776C51.9192 83.2771 52.6242 84.131 53.0419 85.1312C53.4596 86.1314 53.5714 87.233 53.3631 88.2967C53.1548 89.3605 52.6358 90.3385 51.8716 91.1073ZM51.8716 87.2379C51.8716 91.269 46.4913 92.5903 44.5677 89.1224C42.41 85.2196 47.5562 81.3167 50.7007 84.4836C51.0642 84.8441 51.3524 85.2732 51.5487 85.746C51.7449 86.2189 51.8452 86.726 51.8437 87.2379H51.8716ZM68.4921 92.9528C68.3217 88.2764 66.5535 83.7997 63.4824 80.269C60.4113 76.7382 56.2228 74.3668 51.6151 73.5501L50.7453 72.6245L55.2057 67.8909C55.3425 67.7452 55.4187 67.5528 55.4187 67.3529C55.4187 67.153 55.3425 66.9606 55.2057 66.8149L50.7453 62.0534L55.2057 57.3198C55.3425 57.1741 55.4187 56.9817 55.4187 56.7818C55.4187 56.5819 55.3425 56.3895 55.2057 56.2438L50.7453 51.4767L55.1723 46.7431C55.3239 46.5993 55.4125 46.4014 55.4188 46.1925C55.425 45.9836 55.3485 45.7807 55.2057 45.628L50.7453 40.9L55.2057 36.172C55.3425 36.0263 55.4187 35.8339 55.4187 35.634C55.4187 35.4341 55.3425 35.2417 55.2057 35.096L50.7453 30.3289L55.2057 25.6009C55.3425 25.4552 55.4187 25.2628 55.4187 25.0629C55.4187 24.863 55.3425 24.6706 55.2057 24.5248L50.7453 19.7578L55.2057 15.0242C55.3425 14.8785 55.4187 14.6861 55.4187 14.4862C55.4187 14.2863 55.3425 14.0939 55.2057 13.9481L50.7453 9.19224L55.2057 4.53115L94.1449 31.3771V92.975L68.4921 92.9528ZM44.2109 74.5537L43.4192 73.7062L42.3765 72.5911L46.8369 67.8575C46.9737 67.7117 47.0499 67.5194 47.0499 67.3195C47.0499 67.1196 46.9737 66.9272 46.8369 66.7814L42.3765 62.02L46.8369 57.2864C46.9737 57.1406 47.0499 56.9482 47.0499 56.7483C47.0499 56.5485 46.9737 56.3561 46.8369 56.2103L42.3765 51.4433L46.8035 46.7097C46.8799 46.6393 46.9415 46.5543 46.9846 46.4598C47.0277 46.3652 47.0515 46.263 47.0546 46.1592C47.0578 46.0553 47.0401 45.9519 47.0027 45.8549C46.9653 45.758 46.909 45.6695 46.8369 45.5946L42.3765 40.8666L46.8369 36.1386C46.9737 35.9928 47.0499 35.8004 47.0499 35.6005C47.0499 35.4006 46.9737 35.2083 46.8369 35.0625L42.3765 30.2955L46.8369 25.5675C46.9737 25.4217 47.0499 25.2293 47.0499 25.0294C47.0499 24.8295 46.9737 24.6371 46.8369 24.4914L42.3765 19.7243L46.8369 14.9908C46.9737 14.845 47.0499 14.6526 47.0499 14.4527C47.0499 14.2528 46.9737 14.0604 46.8369 13.9147L42.3765 9.15323L46.8369 4.41963C46.9683 4.281 47.0447 4.0993 47.0519 3.90846C47.0591 3.71762 46.9965 3.5307 46.876 3.3826L44.2332 0.13208L0.276062 30.5575V94.5529H28.2594C29.1905 94.5529 29.04 93.5326 29.0679 92.975C29.2293 88.8566 30.7334 84.9039 33.3506 81.7199C35.9679 78.5359 39.5547 76.2953 43.5641 75.3398L44.222 74.5871L44.2109 74.5537ZM50.8123 74.9885L49.1954 73.2657C49.1061 73.1971 49.0321 73.1107 48.9779 73.012C48.9238 72.9134 48.8907 72.8045 48.8807 72.6924C48.8707 72.5803 48.8842 72.4673 48.9201 72.3606C48.956 72.2539 49.0137 72.1558 49.0894 72.0726L53.5498 67.3446L49.1285 62.6165C48.9761 62.4735 48.8864 62.2759 48.8791 62.067C48.8718 61.8581 48.9474 61.6548 49.0894 61.5014L53.5498 56.7734L49.0894 52.0064C48.9542 51.861 48.8791 51.6697 48.8791 51.4712C48.8791 51.2726 48.9542 51.0814 49.0894 50.9359L53.5498 46.1689L49.0894 41.4409C48.9535 41.2936 48.878 41.1005 48.878 40.9C48.878 40.6996 48.9535 40.5065 49.0894 40.3592L53.5498 35.6256L49.1285 30.892C48.9761 30.749 48.8864 30.5514 48.8791 30.3425C48.8718 30.1336 48.9474 29.9303 49.0894 29.7769L53.5498 25.0434L49.1285 20.3153C49.0523 20.2449 48.9909 20.1601 48.9477 20.0658C48.9046 19.9715 48.8804 19.8696 48.8768 19.7659C48.8732 19.6623 48.8901 19.5589 48.9266 19.4618C48.9631 19.3647 49.0184 19.2758 49.0894 19.2002L53.5498 14.4667L49.1229 9.73865C49.0475 9.66744 48.987 9.58203 48.9448 9.48733C48.9026 9.39264 48.8795 9.29054 48.8769 9.1869C48.8743 9.08326 48.8923 8.98012 48.9297 8.88344C48.9671 8.78675 49.0233 8.69843 49.095 8.62355L55.0664 2.37344L95.7228 30.5352V94.5529H67.7394C67.5304 94.5529 67.3299 94.4703 67.1816 94.323C67.0332 94.1757 66.9492 93.9758 66.9477 93.7668C66.947 89.7135 65.6471 85.7672 63.2388 82.5069C60.8305 79.2467 57.4406 76.8442 53.5665 75.652C52.6693 75.3735 51.7523 75.1629 50.8234 75.022L50.8123 74.9885ZM41.7075 74.1745C37.6943 75.4631 34.1748 77.9551 31.6264 81.3124C29.078 84.6698 27.6241 88.7298 27.4621 92.9416H1.8149V31.3827L43.9433 2.33998L45.1977 3.88439L40.7039 8.64586C40.5612 8.79851 40.4846 9.00141 40.4909 9.2103C40.4971 9.41919 40.5857 9.61713 40.7374 9.76095L45.1643 14.489L40.7039 19.2226C40.6325 19.2978 40.5768 19.3864 40.5398 19.4833C40.5029 19.5802 40.4854 19.6834 40.4886 19.7871C40.4917 19.8907 40.5153 19.9927 40.558 20.0872C40.6007 20.1817 40.6616 20.2668 40.7374 20.3376L45.1643 25.0656L40.7039 29.7992C40.5612 29.9519 40.4846 30.1548 40.4909 30.3637C40.4971 30.5726 40.5857 30.7705 40.7374 30.9143L45.1643 35.6368L40.7039 40.3704C40.5667 40.517 40.4904 40.7104 40.4904 40.9112C40.4904 41.112 40.5667 41.3053 40.7039 41.452L45.1643 46.18L40.7039 50.9471C40.5687 51.0925 40.4935 51.2837 40.4935 51.4823C40.4935 51.6809 40.5687 51.8721 40.7039 52.0176L45.1643 56.7846L40.7039 61.5126C40.5612 61.6653 40.4846 61.8682 40.4909 62.077C40.4971 62.2859 40.5857 62.4839 40.7374 62.6277L45.1643 67.3557L40.7039 72.0837C40.046 72.7807 41.0161 73.4943 41.6908 74.2136L41.7075 74.1745ZM83.9529 60.0351C74.7645 50.8467 58.9971 57.3923 58.9971 70.372V71.1638H88.2349V70.372C88.237 68.452 87.8598 66.5504 87.125 64.7765C86.3901 63.0026 85.3122 61.3913 83.9529 60.0351ZM73.616 57.331C70.2913 57.3308 67.0921 58.6004 64.6723 60.8803C62.2525 63.1602 60.7948 66.2783 60.5972 69.5971H86.6292C86.4317 66.2792 84.9748 63.162 82.5561 60.8822C80.1375 58.6025 76.9397 57.3322 73.616 57.331ZM77.569 47.8917C78.2105 47.2412 78.6823 46.443 78.943 45.5673C79.2036 44.6916 79.245 43.7653 79.0636 42.8699C78.8822 41.9744 78.4836 41.1373 77.9027 40.4321C77.3218 39.7268 76.5765 39.1752 75.7324 38.8256C74.8883 38.476 73.9712 38.3393 73.0619 38.4273C72.1525 38.5153 71.2787 38.8255 70.5173 39.3305C69.7559 39.8355 69.1303 40.5199 68.6955 41.3234C68.2607 42.127 68.03 43.0251 68.0238 43.9387C68.0162 45.0479 68.3397 46.1343 68.9528 47.0587C69.566 47.9831 70.4409 48.7036 71.4658 49.128C72.4907 49.5525 73.6189 49.6616 74.7061 49.4413C75.7933 49.2211 76.7901 48.6815 77.569 47.8917ZM73.616 36.7407C72.1981 36.7407 70.8121 37.1611 69.6331 37.9487C68.4541 38.7363 67.5351 39.8558 66.9922 41.1656C66.4494 42.4755 66.3071 43.9169 66.5833 45.3076C66.8595 46.6983 67.5418 47.9758 68.544 48.9788C69.5462 49.9818 70.8233 50.6651 72.2138 50.9424C73.6042 51.2197 75.0457 51.0785 76.356 50.5367C77.6663 49.9948 78.7865 49.0767 79.575 47.8983C80.3635 46.7199 80.785 45.3342 80.7861 43.9164C80.7846 42.0147 80.0289 40.1912 78.6847 38.846C77.3405 37.5008 75.5177 36.7437 73.616 36.7407Z" fill="#DB653C"/>
</svg>
