<svg width="94" height="109" viewBox="0 0 94 109" fill="none" xmlns="http://www.w3.org/2000/svg">
<path fill-rule="evenodd" clip-rule="evenodd" d="M17.3299 78.9144C25.8506 78.9144 33.7713 72.8927 33.7149 64.7391C33.7149 64.1037 20.1042 25.2062 18.6712 21.0411C20.5066 20.6387 23.0833 19.3539 24.5588 19.3539H44.3252V91.9956H37.5976C36.0997 91.9956 34.6633 92.5906 33.6041 93.6498C32.545 94.7089 31.95 96.1453 31.95 97.6432V99.281H27.2696C25.7718 99.281 24.3353 99.876 23.2761 100.935C22.217 101.994 21.622 103.431 21.622 104.929C21.622 106.644 21.2549 108.571 22.6245 108.571H72.1042C73.4737 108.571 73.1066 106.644 73.1066 104.929C73.1066 103.431 72.5116 101.994 71.4525 100.935C70.3933 99.876 68.9569 99.281 67.459 99.281H62.7857C62.7857 97.1208 62.8986 95.4336 61.1197 93.6334C60.0625 92.5737 58.6279 91.977 57.1311 91.9744H50.3681V19.3468H70.1346C71.61 19.3468 74.1938 20.6316 76.0222 21.034L60.9643 64.6473C60.7525 68.3182 62.9692 72.335 65.8212 74.7847C76.1986 83.7078 93.7273 77.1637 93.7273 64.7391L93.6355 64.252L78.7259 21.1611C80.6024 20.9908 82.4191 20.4126 84.0487 19.4668C84.2633 19.3345 84.42 19.1262 84.4878 18.8834C84.5557 18.6406 84.5296 18.3812 84.4147 18.1569C84.2999 17.9325 84.1047 17.7597 83.8681 17.6727C83.6315 17.5858 83.3709 17.5912 83.1381 17.6878C80.8297 18.8597 79.7848 19.2339 77.3423 19.2339C75.4574 19.2339 72.4501 17.3772 70.1134 17.3772H50.3469V11.2708C55.1685 8.27053 53.0578 0.752197 47.3467 0.752197C46.1108 0.752744 44.9087 1.15568 43.9222 1.90005C42.9356 2.64442 42.2182 3.68975 41.8785 4.87802C41.5387 6.06628 41.5951 7.33283 42.0391 8.4862C42.4831 9.63957 43.2905 10.617 44.3393 11.2708V17.349H24.5729C21.1843 17.349 19.0806 20.1163 14.5343 18.9091C12.2824 18.3091 10.8917 16.7348 10.1998 18.0973C10.1402 18.214 10.1042 18.3414 10.0939 18.4721C10.0837 18.6028 10.0993 18.7342 10.14 18.8589C10.1807 18.9835 10.2455 19.0989 10.3309 19.1984C10.4163 19.2978 10.5205 19.3795 10.6375 19.4386C12.2649 20.3942 14.0816 20.9821 15.9603 21.1611L0.951946 64.6473C0.733103 68.3182 2.95683 72.335 5.80179 74.7847C9.03044 77.4879 13.1192 78.9477 17.3299 78.9003V78.9144ZM16.3345 20.0386C16.3659 19.8153 16.4791 19.6115 16.6522 19.4668C16.5126 19.5959 16.4126 19.762 16.3639 19.9457C16.3151 20.1294 16.3196 20.3233 16.3769 20.5045C16.3291 20.3542 16.3146 20.1952 16.3345 20.0386V20.0386ZM17.3299 23.2507L31.3358 63.7578H3.31687L17.3299 23.2507ZM32.9171 101.279H67.4308C68.3976 101.279 69.3248 101.662 70.0091 102.345C70.6933 103.028 71.0787 103.955 71.0805 104.921V106.559H23.5916C23.5916 104.929 23.401 103.608 24.6646 102.324C25.349 101.642 26.2754 101.259 27.2414 101.258L32.9171 101.279ZM46.3301 91.9886V10.6637C46.3301 9.5624 45.2006 9.95773 44.2123 8.39053C41.8897 4.72667 46.8384 0.716898 49.9375 3.816C50.3509 4.23116 50.6597 4.73878 50.8381 5.29687C51.0166 5.85496 51.0596 6.44751 50.9638 7.02554C50.8679 7.60357 50.6358 8.15048 50.2867 8.62107C49.9377 9.09165 49.4816 9.47239 48.9562 9.73182C48.7704 9.80659 48.6112 9.93533 48.4992 10.1014C48.3872 10.2675 48.3276 10.4634 48.3279 10.6637V91.9886H46.3301ZM47.3325 93.9864H57.0958C58.0632 93.9882 58.9904 94.3734 59.6745 95.0574C60.3585 95.7415 60.7436 96.6687 60.7455 97.6361V99.2739H33.9196C33.9196 97.6432 33.729 96.323 34.9926 95.0382C35.3308 94.6997 35.7326 94.4313 36.1747 94.2484C36.6169 94.0655 37.0908 93.9716 37.5693 93.9723L47.3325 93.9864ZM63.0116 65.7486H91.6729C90.614 76.0554 75.7398 80.6934 67.1131 73.2739C64.8311 71.3855 63.3647 68.6903 63.0187 65.7486H63.0116ZM63.3293 63.7508L77.3352 23.2436L91.3482 63.7508H63.3293ZM93.6849 64.4214C93.7122 64.4964 93.7288 64.5748 93.7343 64.6544L93.6849 64.4214ZM76.7987 19.3821L76.8622 19.3468L76.7987 19.3821ZM77.9423 19.375L77.9988 19.4174L77.9423 19.375ZM78.1894 19.6151L78.2318 19.6715L78.1894 19.6151ZM18.2829 19.8198L17.577 19.2197C17.7376 19.2474 17.8878 19.3177 18.0119 19.4233C18.1361 19.5288 18.2297 19.6657 18.2829 19.8198V19.8198ZM31.6959 65.7486C30.644 76.0554 15.7697 80.6934 7.14308 73.2739C4.84972 71.3922 3.36843 68.7 3.00625 65.7556L31.6959 65.7486Z" fill="#DB653C"/>
</svg>
