<svg width="84" height="99" viewBox="0 0 84 99" fill="none" xmlns="http://www.w3.org/2000/svg">
<path fill-rule="evenodd" clip-rule="evenodd" d="M61.1577 68.6315V67.6983C61.1577 62.6042 59.1341 57.7187 55.532 54.1166C51.9299 50.5146 47.0444 48.4909 41.9503 48.4909C36.8562 48.4909 31.9707 50.5146 28.3686 54.1166C24.7666 57.7187 22.7429 62.6042 22.7429 67.6983V68.606L61.1577 68.6315ZM42.3147 8.59962L76.4406 22.5465C77.1692 38.7306 75.2325 52.8693 69.8186 64.2723C64.4047 75.6753 55.5201 84.317 42.3338 89.6031C29.1283 84.317 20.2309 75.6434 14.849 64.2723C9.4671 52.9013 7.49843 38.705 8.2271 22.5465L42.353 8.59962H42.3147ZM42.6662 91.412H41.9823C28.1823 86.0301 18.7864 76.845 13.1744 65.0329C7.56234 53.2209 5.59369 38.5964 6.41184 21.8818C6.41848 21.7093 6.47518 21.5425 6.57507 21.4018C6.67496 21.261 6.81372 21.1524 6.97433 21.0892C10.3045 19.7278 41.8097 6.72042 42.3147 6.72042C42.8196 6.72042 74.3248 19.7278 77.655 21.0892C77.8147 21.1538 77.9525 21.2627 78.0522 21.4032C78.1519 21.5437 78.2092 21.7098 78.2175 21.8818C79.694 52.3899 72.1644 79.7661 42.6662 91.4056V91.412ZM42.3147 1.99686L82.0206 18.2193C82.8771 37.0432 80.6336 53.4829 74.3504 66.746C68.0673 80.009 57.7317 90.0697 42.3338 96.2122C26.9295 90.0697 16.5876 79.9834 10.3108 66.746C4.03407 53.5085 1.7522 37.0176 2.64066 18.2193L42.3466 1.99686H42.3147ZM41.9631 98.0211C7.81804 84.5535 -0.862067 52.8693 0.831764 17.5609C0.839199 17.3887 0.896259 17.2222 0.996046 17.0816C1.09583 16.941 1.2341 16.8322 1.39425 16.7684L41.9759 0.187988H42.6534L83.2351 16.7684C83.3943 16.8336 83.5317 16.9427 83.6313 17.083C83.7309 17.2233 83.7885 17.3891 83.7975 17.5609C84.7371 36.9153 82.4616 53.8409 75.9675 67.5194C69.4734 81.1978 58.6074 91.8083 42.6406 98.0275L41.9631 98.0211ZM35.3412 39.357C41.2152 45.2311 51.3207 41.0509 51.3207 32.7415C51.3207 24.4321 41.2344 20.2583 35.3412 26.1324C34.4721 27.0003 33.7826 28.031 33.3122 29.1656C32.8417 30.3002 32.5996 31.5164 32.5996 32.7447C32.5996 33.973 32.8417 35.1892 33.3122 36.3238C33.7826 37.4584 34.4721 38.4891 35.3412 39.357V39.357ZM41.9503 40.2838C43.193 40.2878 44.4173 39.9846 45.5146 39.4014C46.6118 38.8181 47.548 37.9727 48.2398 36.9405C48.9316 35.9082 49.3576 34.721 49.48 33.4844C49.6024 32.2477 49.4173 31.0001 48.9413 29.8522C48.4652 28.7044 47.7129 27.6919 46.7513 26.9048C45.7897 26.1178 44.6485 25.5805 43.4292 25.3408C42.2099 25.1011 40.9502 25.1664 39.7622 25.5309C38.5742 25.8953 37.4947 26.5477 36.6195 27.4299C35.5657 28.4847 34.8482 29.8282 34.5576 31.2906C34.2669 32.753 34.4163 34.2688 34.9868 35.6463C35.5572 37.0239 36.5232 38.2015 37.7626 39.0303C39.002 39.8592 40.4593 40.302 41.9503 40.303V40.2838ZM59.3233 66.8227H24.5838C25.3508 51.8594 43.6058 44.7773 54.2482 55.426C57.2956 58.4634 59.1046 62.5256 59.3233 66.8227V66.8227Z" fill="#DB653C"/>
</svg>
