<svg width="107" height="109" viewBox="0 0 107 109" fill="none" xmlns="http://www.w3.org/2000/svg">
<path fill-rule="evenodd" clip-rule="evenodd" d="M105.007 38.3976V107.052H2.14037V38.3976L53.5737 2.94245L105.007 38.3976ZM46.029 63.8781C47.7707 65.6282 50.0654 66.7201 52.522 66.9677C54.9787 67.2154 57.4452 66.6034 59.5011 65.2362C61.5571 63.869 63.0753 61.8311 63.797 59.4698C64.5187 57.1086 64.3993 54.5701 63.459 52.2871C62.5187 50.0041 60.8158 48.1178 58.6405 46.9497C56.4652 45.7816 53.9521 45.4041 51.5296 45.8813C49.1071 46.3586 46.9251 47.6612 45.3554 49.5671C43.7858 51.4731 42.9256 53.8643 42.9216 56.3334C42.9186 57.7334 43.1915 59.1204 43.7247 60.4149C44.2579 61.7094 45.0409 62.8863 46.029 63.8781ZM47.2719 62.6352C48.7293 64.0917 50.6466 64.9979 52.6972 65.1992C54.7477 65.4006 56.8047 64.8847 58.5175 63.7394C60.2304 62.5942 61.4931 60.8904 62.0906 58.9185C62.688 56.9466 62.5833 54.8286 61.7941 52.9252C61.005 51.0219 59.5803 49.4511 57.7628 48.4804C55.9453 47.5098 53.8475 47.1994 51.8268 47.6021C49.8061 48.0048 47.9876 49.0957 46.6811 50.689C45.3745 52.2822 44.6609 54.2792 44.6617 56.3396C44.6591 57.5094 44.8885 58.6681 45.3365 59.7487C45.7845 60.8293 46.4423 61.8104 47.2719 62.6352ZM74.6852 62.3928C75.9931 63.7043 77.7154 64.5217 79.5585 64.7055C81.4016 64.8894 83.2515 64.4283 84.7927 63.401C86.3339 62.3737 87.4712 60.8437 88.0107 59.0717C88.5501 57.2998 88.4583 55.3956 87.751 53.6837C87.0437 51.9718 85.7646 50.5582 84.1317 49.6839C82.4988 48.8095 80.6133 48.5285 78.7964 48.8887C76.9795 49.2489 75.3438 50.228 74.168 51.6592C72.9922 53.0905 72.3492 54.8851 72.3484 56.7374C72.3464 57.7875 72.5517 58.8276 72.9527 59.7982C73.3537 60.7687 73.9425 61.6504 74.6852 62.3928ZM84.7469 61.1498C85.7631 60.1334 86.3955 58.7961 86.5365 57.3657C86.6775 55.9354 86.3184 54.5003 85.5202 53.305C84.7221 52.1097 83.5343 51.2279 82.1592 50.8099C80.784 50.3919 79.3065 50.4635 77.9781 51.0124C76.6498 51.5613 75.5528 52.5537 74.8739 53.8206C74.195 55.0875 73.9762 56.5505 74.2548 57.9605C74.5334 59.3706 75.2921 60.6405 76.4017 61.554C77.5114 62.4675 78.9033 62.9682 80.3406 62.9708C81.1588 62.9722 81.9692 62.8121 82.7253 62.4996C83.4815 62.1872 84.1684 61.7285 84.7469 61.1498ZM80.3406 69.9126C78.2002 69.909 76.0802 70.3288 74.1027 71.1479C72.1252 71.9671 70.3293 73.1694 68.8185 74.6856C67.8595 75.6537 67.0245 76.7372 66.3326 77.911C62.6041 75.2827 58.154 73.8719 53.5923 73.8719C49.0306 73.8719 44.5805 75.2827 40.8521 77.911C40.1601 76.7372 39.3251 75.6537 38.3662 74.6856C36.0898 72.382 33.1787 70.8089 30.0044 70.1672C26.83 69.5255 23.5365 69.8441 20.5441 71.0826C17.5517 72.321 14.9962 74.423 13.2037 77.1204C11.4113 79.8176 10.4632 82.9879 10.4806 86.2264V87.1027H33.3136C32.0827 89.8994 31.4478 92.9218 31.4492 95.9773V96.8598H75.6236V95.9773C75.625 92.9218 74.9901 89.8994 73.7592 87.1027H96.5922V86.2264C96.5922 81.9047 94.8754 77.7599 91.8195 74.704C88.7636 71.6481 84.6188 69.9313 80.2971 69.9313L80.3406 69.9126ZM67.7185 78.9986C68.2281 79.4212 68.719 79.8687 69.1851 80.341C70.6588 81.812 71.9144 83.4863 72.914 85.3128H94.8272C94.6567 82.5189 93.6831 79.8336 92.0234 77.5795C90.3637 75.3255 88.0886 73.5986 85.4712 72.6062C82.8539 71.6139 80.0057 71.3983 77.2688 71.9855C74.5319 72.5726 72.0228 73.9375 70.0428 75.9161C69.1317 76.8333 68.344 77.8653 67.6998 78.9862L67.7185 78.9986ZM26.7943 64.568C28.6415 64.5669 30.4311 63.9255 31.8585 62.7531C33.2859 61.5807 34.2627 59.9497 34.6226 58.138C34.9825 56.3262 34.7032 54.4457 33.8323 52.8168C32.9614 51.1878 31.5528 49.9111 29.8463 49.2041C28.1398 48.4971 26.2409 48.4036 24.4732 48.9394C22.7055 49.4752 21.1781 50.6073 20.1513 52.1427C19.1245 53.6782 18.6617 55.5221 18.8418 57.3605C19.0219 59.1989 19.8336 60.9179 21.1389 62.225C21.8807 62.9688 22.7622 63.5587 23.7328 63.9608C24.7033 64.3629 25.7438 64.5692 26.7943 64.568ZM31.2006 60.982C32.2167 59.9656 32.8492 58.6283 32.9902 57.1979C33.1312 55.7676 32.772 54.3325 31.9739 53.1372C31.1758 51.9419 29.988 51.0601 28.6128 50.6421C27.2377 50.2241 25.7601 50.2957 24.4318 50.8446C23.1035 51.3935 22.0064 52.3859 21.3276 53.6528C20.6487 54.9197 20.4299 56.3827 20.7085 57.7927C20.987 59.2028 21.7457 60.4727 22.8554 61.3862C23.965 62.2997 25.357 62.8004 26.7943 62.803C27.6125 62.8044 28.4229 62.6443 29.179 62.3318C29.9351 62.0194 30.6221 61.5607 31.2006 60.982ZM34.2023 85.3252C35.2039 83.5 36.4594 81.8261 37.9311 80.3534C38.3972 79.8811 38.8882 79.4336 39.3978 79.011C38.7536 77.8902 37.966 76.8581 37.0549 75.941C35.0749 73.9623 32.5657 72.5975 29.8288 72.0104C27.092 71.4232 24.2438 71.6387 21.6264 72.6311C19.0091 73.6234 16.7339 75.3503 15.0742 77.6044C13.4145 79.8584 12.441 82.5437 12.2704 85.3377L34.2023 85.3252ZM41.66 79.4896C41.4176 79.6698 41.1752 79.85 40.9391 80.0365C40.7029 80.2229 40.4605 80.428 40.2306 80.6269C39.8764 80.9376 39.5345 81.2484 39.2052 81.584C38.0799 82.7082 37.0892 83.9596 36.2532 85.3128C36.0729 85.5987 35.9051 85.897 35.7435 86.1953C35.582 86.4936 35.4328 86.7795 35.2837 87.0716C34.0672 89.5791 33.3797 92.3102 33.2639 95.0948H73.8711C73.753 92.3212 73.0677 89.6012 71.8575 87.1027C71.7083 86.8106 71.5592 86.5123 71.4038 86.2264C71.2484 85.9405 71.0682 85.6049 70.888 85.3439C70.054 83.9892 69.0632 82.7376 67.936 81.615C67.6066 81.2856 67.2648 80.9936 66.9105 80.658C66.6806 80.4591 66.4444 80.2602 66.2021 80.0676C65.9597 79.8749 65.7297 79.7009 65.4811 79.5207C62.0132 77.0115 57.8418 75.6607 53.5613 75.6607C49.2807 75.6607 45.1093 77.0115 41.6413 79.5207L41.66 79.4896ZM106.778 108.792V37.4778C89.0454 25.2472 71.3127 13.0249 53.5799 0.810791L0.381592 37.4778V108.811L106.778 108.792Z" fill="#DB653C"/>
</svg>
