<svg width="78" height="103" viewBox="0 0 78 103" fill="none" xmlns="http://www.w3.org/2000/svg">
<path fill-rule="evenodd" clip-rule="evenodd" d="M9.2604 53.9249H69.6143C69.8464 53.9054 70.0627 53.7994 70.2203 53.6279C70.378 53.4565 70.4654 53.2321 70.4654 52.9991C70.4654 52.7662 70.378 52.5418 70.2203 52.3704C70.0627 52.1989 69.8464 52.0929 69.6143 52.0734H9.2604C9.02831 52.0929 8.81201 52.1989 8.65437 52.3704C8.49674 52.5418 8.40927 52.7662 8.40927 52.9991C8.40927 53.2321 8.49674 53.4565 8.65437 53.6279C8.81201 53.7994 9.02831 53.9054 9.2604 53.9249ZM39.4406 40.2709C37.703 41.6379 35.6157 42.4883 33.4175 42.7245C31.2193 42.9608 28.9989 42.5735 27.0105 41.607C25.022 40.6404 23.3459 39.1336 22.1737 37.259C21.0016 35.3844 20.3808 33.2177 20.3825 31.0068C20.3825 21.1931 31.7533 15.704 39.4406 21.7492C41.178 20.3844 43.2644 19.5359 45.4612 19.3006C47.658 19.0654 49.8767 19.4528 51.8638 20.4187C53.8508 21.3846 55.5261 22.8901 56.6981 24.763C57.8701 26.6358 58.4916 28.8007 58.4916 31.01C58.4916 33.2194 57.8701 35.3843 56.6981 37.2571C55.5261 39.13 53.8508 40.6354 51.8638 41.6014C49.8767 42.5673 47.658 42.9547 45.4612 42.7195C43.2644 42.4842 41.178 41.6357 39.4406 40.2709ZM39.4406 37.7586C41.141 35.9226 42.0857 33.5125 42.0857 31.01C42.0857 28.5076 41.141 26.0975 39.4406 24.2615C37.7373 26.096 36.7908 28.5067 36.7908 31.01C36.7908 33.5133 37.7373 35.9241 39.4406 37.7586ZM38.0536 23.025C36.5759 21.9342 34.8244 21.2748 32.9942 21.1204C31.1639 20.9659 29.3267 21.3223 27.687 22.15C26.0473 22.9776 24.6695 24.2441 23.7069 25.8083C22.7442 27.3726 22.2345 29.1733 22.2345 31.01C22.2345 32.8468 22.7442 34.6475 23.7069 36.2118C24.6695 37.776 26.0473 39.0425 27.687 39.8701C29.3267 40.6978 31.1639 41.0542 32.9942 40.8997C34.8244 40.7452 36.5759 40.0859 38.0536 38.9951C36.0471 36.82 34.933 33.9693 34.933 31.01C34.933 28.0508 36.0471 25.2001 38.0536 23.025ZM40.8211 23.025C42.8276 25.2001 43.9417 28.0508 43.9417 31.01C43.9417 33.9693 42.8276 36.82 40.8211 38.9951C42.2988 40.0859 44.0503 40.7452 45.8805 40.8997C47.7108 41.0542 49.5479 40.6978 51.1876 39.8701C52.8273 39.0425 54.2052 37.776 55.1678 36.2118C56.1305 34.6475 56.6402 32.8468 56.6402 31.01C56.6402 29.1733 56.1305 27.3726 55.1678 25.8083C54.2052 24.2441 52.8273 22.9776 51.1876 22.15C49.5479 21.3223 47.7108 20.9659 45.8805 21.1204C44.0503 21.2748 42.2988 21.9342 40.8211 23.025ZM2.82918 100.291V2.53413H58.8128V19.2108C58.8119 19.333 58.8353 19.4542 58.8817 19.5673C58.9281 19.6804 58.9965 19.7832 59.0829 19.8696C59.1693 19.9561 59.2721 20.0245 59.3852 20.0709C59.4983 20.1172 59.6195 20.1407 59.7418 20.1398H76.0455V100.291H2.82918ZM60.4026 1.31069L77.6419 18.55L77.9232 19.2042V101.22C77.9215 101.465 77.8228 101.7 77.6488 101.873C77.4747 102.046 77.2394 102.143 76.9942 102.143H1.90016C1.6549 102.143 1.41958 102.046 1.24554 101.873C1.0715 101.7 0.972858 101.465 0.97113 101.22V1.61165C0.97113 1.36525 1.06902 1.12895 1.24325 0.954723C1.41747 0.780497 1.65377 0.682617 1.90016 0.682617H59.3689C59.8399 0.682617 60.0624 0.990111 60.3829 1.33686L60.4026 1.31069ZM60.6839 18.321H74.7567L60.6839 4.24824V18.2883V18.321ZM61.6326 85.1519C60.9893 85.7913 60.5505 86.6073 60.3715 87.4964C60.1926 88.3855 60.2817 89.3077 60.6276 90.1462C60.9734 90.9846 61.5603 91.7014 62.314 92.2059C63.0677 92.7103 63.9543 92.9796 64.8612 92.9796C65.7682 92.9796 66.6547 92.7103 67.4084 92.2059C68.1621 91.7014 68.7491 90.9846 69.0949 90.1462C69.4408 89.3077 69.5299 88.3855 69.3509 87.4964C69.172 86.6073 68.7331 85.7913 68.0899 85.1519C67.2319 84.299 66.0711 83.8202 64.8612 83.8202C63.6514 83.8202 62.4906 84.299 61.6326 85.1519ZM64.8645 85.6688C61.2727 85.6688 61.3185 91.0924 64.8645 91.0924C68.4105 91.0924 68.4367 85.6688 64.8645 85.6688ZM39.4603 87.4548H9.2604C9.014 87.4548 8.7777 87.5527 8.60348 87.727C8.42925 87.9012 8.33136 88.1375 8.33136 88.3839C8.33136 88.6303 8.42925 88.8666 8.60348 89.0408C8.7777 89.215 9.014 89.3129 9.2604 89.3129H39.4406C39.687 89.3129 39.9233 89.215 40.0975 89.0408C40.2718 88.8666 40.3697 88.6303 40.3697 88.3839C40.3697 88.1375 40.2718 87.9012 40.0975 87.727C39.9233 87.5527 39.687 87.4548 39.4406 87.4548H39.4603ZM69.6339 76.7253H9.2604C9.014 76.7253 8.7777 76.8232 8.60348 76.9974C8.42925 77.1716 8.33136 77.4079 8.33136 77.6543C8.33136 77.9007 8.42925 78.137 8.60348 78.3112C8.7777 78.4854 9.014 78.5833 9.2604 78.5833H69.6143C69.8607 78.5833 70.097 78.4854 70.2712 78.3112C70.4454 78.137 70.5433 77.9007 70.5433 77.6543C70.5433 77.4079 70.4454 77.1716 70.2712 76.9974C70.097 76.8232 69.8607 76.7253 69.6143 76.7253H69.6339ZM69.6339 68.5211H9.2604C9.02831 68.5406 8.81201 68.6466 8.65437 68.818C8.49674 68.9895 8.40927 69.2139 8.40927 69.4468C8.40927 69.6797 8.49674 69.9041 8.65437 70.0756C8.81201 70.247 9.02831 70.353 9.2604 70.3726H69.6143C69.8464 70.353 70.0627 70.247 70.2203 70.0756C70.378 69.9041 70.4654 69.6797 70.4654 69.4468C70.4654 69.2139 70.378 68.9895 70.2203 68.818C70.0627 68.6466 69.8464 68.5406 69.6143 68.5211H69.6339ZM69.6339 60.3103H9.2604C9.014 60.3103 8.7777 60.4082 8.60348 60.5824C8.42925 60.7566 8.33136 60.9929 8.33136 61.2393C8.33136 61.4857 8.42925 61.722 8.60348 61.8963C8.7777 62.0705 9.014 62.1684 9.2604 62.1684H69.6143C69.865 62.1684 70.1055 62.0688 70.2828 61.8915C70.4601 61.7142 70.5597 61.4737 70.5597 61.223C70.5597 60.9722 70.4601 60.7318 70.2828 60.5545C70.1055 60.3772 69.865 60.2776 69.6143 60.2776L69.6339 60.3103Z" fill="#DB653C"/>
</svg>
