<svg width="20" height="20" viewBox="0 0 20 20" fill="none" xmlns="http://www.w3.org/2000/svg">
<path d="M18.6241 0.378418H1.37408C0.959241 0.378418 0.624084 0.713574 0.624084 1.12842V18.3784C0.624084 18.7933 0.959241 19.1284 1.37408 19.1284H18.6241C19.0389 19.1284 19.3741 18.7933 19.3741 18.3784V1.12842C19.3741 0.713574 19.0389 0.378418 18.6241 0.378418ZM16.4585 5.85107H14.9608C13.7866 5.85107 13.5592 6.40889 13.5592 7.2292V9.03623H16.3624L15.9967 11.8651H13.5592V19.1284H10.6366V11.8675H8.19205V9.03623H10.6366V6.95029C10.6366 4.5292 12.1155 3.20967 14.2764 3.20967C15.3124 3.20967 16.2006 3.28701 16.4608 3.32217V5.85107H16.4585Z" fill="#DB653C"/>
</svg>
