<svg width="20" height="20" viewBox="0 0 20 20" fill="none" xmlns="http://www.w3.org/2000/svg">
<path d="M18.6241 0.378418H1.37408C0.959241 0.378418 0.624084 0.713574 0.624084 1.12842V18.3784C0.624084 18.7933 0.959241 19.1284 1.37408 19.1284H18.6241C19.0389 19.1284 19.3741 18.7933 19.3741 18.3784V1.12842C19.3741 0.713574 19.0389 0.378418 18.6241 0.378418ZM15.0452 7.16826C15.0522 7.27842 15.0522 7.39326 15.0522 7.50576C15.0522 10.9464 12.4319 14.9097 7.64362 14.9097C6.16705 14.9097 4.7983 14.4808 3.64518 13.7425C3.85612 13.7659 4.05768 13.7753 4.2733 13.7753C5.49205 13.7753 6.61237 13.3628 7.50533 12.6644C6.36158 12.6409 5.40065 11.8909 5.07252 10.8597C5.4733 10.9183 5.83424 10.9183 6.24674 10.8128C5.65782 10.6931 5.12848 10.3733 4.74865 9.9076C4.36883 9.44189 4.16194 8.85906 4.16315 8.25811V8.22529C4.50768 8.41982 4.91315 8.53936 5.33737 8.55576C4.98075 8.31809 4.68828 7.9961 4.48591 7.61833C4.28353 7.24056 4.1775 6.8187 4.17721 6.39014C4.17721 5.90498 4.30377 5.46201 4.53112 5.07764C5.18479 5.88233 6.00048 6.54047 6.92517 7.00927C7.84986 7.47808 8.86285 7.74706 9.8983 7.79873C9.53033 6.0292 10.8522 4.59717 12.4413 4.59717C13.1913 4.59717 13.8663 4.91123 14.3421 5.41748C14.9303 5.30732 15.4928 5.08701 15.9944 4.7917C15.7999 5.39404 15.3921 5.90264 14.8506 6.22373C15.3756 6.16748 15.8819 6.02217 16.3506 5.81826C15.9967 6.33857 15.5538 6.80029 15.0452 7.16826Z" fill="#DB653C"/>
</svg>
